<?xml version="1.0" encoding="UTF-8" standalone="no"?>
<!-- Created with Inkscape (http://www.inkscape.org/) -->

<svg
   xmlns:dc="http://purl.org/dc/elements/1.1/"
   xmlns:cc="http://creativecommons.org/ns#"
   xmlns:rdf="http://www.w3.org/1999/02/22-rdf-syntax-ns#"
   xmlns:svg="http://www.w3.org/2000/svg"
   xmlns="http://www.w3.org/2000/svg"
   xmlns:sodipodi="http://sodipodi.sourceforge.net/DTD/sodipodi-0.dtd"
   xmlns:inkscape="http://www.inkscape.org/namespaces/inkscape"
   width="979.8045"
   height="427.66626"
   viewBox="0 0 979.8045 427.66626"
   id="svg2"
   version="1.1"
   inkscape:version="0.91 r13725"
   sodipodi:docname="splashrx_logo.svg">
  <defs
     id="defs4" />
  <sodipodi:namedview
     id="base"
     pagecolor="#ffffff"
     bordercolor="#666666"
     borderopacity="1.0"
     inkscape:pageopacity="0.0"
     inkscape:pageshadow="2"
     inkscape:zoom="0.98994949"
     inkscape:cx="430.306"
     inkscape:cy="250.39669"
     inkscape:document-units="px"
     inkscape:current-layer="layer1"
     showgrid="false"
     units="px"
     fit-margin-top="15"
     fit-margin-left="15"
     fit-margin-bottom="15"
     fit-margin-right="15"
     inkscape:window-width="1366"
     inkscape:window-height="723"
     inkscape:window-x="0"
     inkscape:window-y="22"
     inkscape:window-maximized="1" />
  <metadata
     id="metadata7">
    <rdf:RDF>
      <cc:Work
         rdf:about="">
        <dc:format>image/svg+xml</dc:format>
        <dc:type
           rdf:resource="http://purl.org/dc/dcmitype/StillImage" />
        <dc:title></dc:title>
      </cc:Work>
    </rdf:RDF>
  </metadata>
  <g
     inkscape:label="Layer 1"
     inkscape:groupmode="layer"
     id="layer1"
     transform="translate(-22.005853,-493.17133)">
    <path
       style="color:#000000;font-style:normal;font-variant:normal;font-weight:normal;font-stretch:normal;font-size:medium;line-height:125%;font-family:'Cooper Black';-inkscape-font-specification:'Cooper Black, ';text-indent:0;text-align:start;text-decoration:none;text-decoration-line:none;text-decoration-style:solid;text-decoration-color:#000000;letter-spacing:-1.62029231px;word-spacing:0px;text-transform:none;direction:ltr;block-progression:tb;writing-mode:lr-tb;baseline-shift:baseline;text-anchor:start;white-space:normal;clip-rule:nonzero;display:inline;overflow:visible;visibility:visible;opacity:1;isolation:auto;mix-blend-mode:normal;color-interpolation:sRGB;color-interpolation-filters:linearRGB;solid-color:#000000;solid-opacity:1;fill:#ffffff;fill-opacity:1;fill-rule:nonzero;stroke:#5d5d5d;stroke-width:1;stroke-linecap:butt;stroke-linejoin:miter;stroke-miterlimit:4;stroke-dasharray:none;stroke-dashoffset:0;stroke-opacity:1;color-rendering:auto;image-rendering:auto;shape-rendering:auto;text-rendering:auto;enable-background:accumulate"
       d="m 107.84306,508.72563 c -18.342647,0 -34.451607,5.32709 -47.479317,15.9578 -5.93522,4.70645 -10.63862,10.41198 -13.93544,16.97977 l 0,0.004 c -3.2931,6.49188 -5.01037,13.37347 -5.01037,20.39652 0,14.10172 6.71216,26.95016 18.89819,37.46293 l 0.0133,0.009 0.009,0.009 c 4.98795,4.25862 10.38894,7.83371 16.17431,10.6876 l 0.0259,0.0133 0.0304,0.0133 c 5.81601,2.79352 13.78286,5.6922 24.151047,8.8688 l 0.0177,0.004 0.0133,0.004 c 5.43236,1.6324 9.10744,3.43571 10.67893,4.66826 1.58106,1.23997 1.69323,1.70507 1.69323,2.74551 0,0.90826 0.004,1.24842 -2.12195,2.51599 -2.1545,1.22155 -5.42135,2.06131 -10.01636,2.06131 -5.351127,0 -10.487167,-1.10361 -15.594047,-3.37345 -0.002,-0.001 -0.007,-0.002 -0.009,-0.004 -5.01336,-2.26219 -8.24371,-4.89966 -10.14631,-7.69524 l -0.0133,-0.0177 c -5.57247,-8.27719 -8.58547,-12.74073 -11.18995,-15.41217 -3.18532,-3.43223 -7.34765,-5.84612 -11.92178,-5.84612 -4.24852,0 -8.47138,2.12927 -11.13366,5.4304 -2.56406,3.1349 -3.41673,7.09231 -3.41673,11.2809 0,7.81805 1.50464,15.7878 4.41274,23.83492 l 0.0133,0.0304 0.009,0.0304 c 2.98846,7.98272 6.2816,13.85636 11.54072,17.26992 l 0.0259,0.0133 0.0259,0.0177 c 5.57983,3.53546 13.34627,6.0403 23.82193,8.26688 l 0.0222,0.004 0.0177,0.004 c 10.47423,2.15445 20.49907,3.24784 30.075117,3.24784 21.38952,0 39.35877,-5.06619 53.24317,-15.5464 l 0.009,0 c 13.5736,-10.25329 20.89021,-24.425 20.89021,-40.82336 0,-7.82125 -1.93863,-14.99507 -5.57331,-21.38819 0.21174,0.29074 0.42881,0.57999 0.66254,0.85309 l 0.039,0.0477 0.039,0.0432 c 2.26365,2.53451 5.43492,4.21466 8.77353,4.82415 1.07623,0.19954 1.77988,0.34752 2.49003,0.49366 0.0111,0.0811 0.007,0.0239 0.0177,0.1082 0.15786,1.29318 0.3201,3.14563 0.47634,5.48238 0.31021,4.63779 0.5969,11.25004 0.84445,19.67334 -0.42859,20.6049 -1.25323,33.78391 -1.8188,36.67476 l -0.009,0.0432 -0.009,0.0432 c -0.53486,2.98241 -1.338,3.9464 -3.50336,4.91942 l -0.0222,0.009 -0.0222,0.009 c -2.91485,1.3401 -5.17127,2.5367 -7.11496,4.7202 l -0.13436,0.15165 -0.12128,0.16031 c -1.89802,2.46391 -2.46405,5.3839 -2.46405,8.24522 0,6.99274 5.01647,12.8219 11.95644,16.40383 12.55493,6.5211 27.0876,9.70458 43.32204,9.70458 9.19704,0 16.67637,-1.1205 22.6657,-3.98404 5.99942,-2.80017 10.42344,-8.38965 10.42344,-14.71493 0,-2.59199 -0.35818,-5.30736 -2.41639,-7.72557 -1.04062,-1.23327 -1.8178,-1.75002 -2.98371,-2.61127 -1.17303,-0.86657 -2.63395,-1.86528 -4.43873,-3.04865 l -0.0259,-0.0177 -0.0222,-0.0133 c -2.08991,-1.34369 -2.98183,-2.94402 -3.04001,-6.84213 6.48536,2.60005 12.9762,4.10528 19.37888,4.10528 13.32492,0 25.58263,-5.13614 35.813,-14.78856 13.20037,-12.32972 19.99811,-28.5978 19.99811,-47.42734 0,-8.93062 -1.72407,-17.54611 -5.15758,-25.67537 l -0.004,0 c -3.30396,-7.81218 -8.0521,-14.47485 -14.16931,-19.7253 l 0,-0.004 -0.004,0 c -8.04241,-6.8906 -17.65755,-10.53936 -28.00084,-10.54038 l -0.004,0 c -4.53575,5.1e-4 -9.36253,0.80886 -14.53739,2.31248 -5.10433,1.43473 -9.51818,3.27911 -13.21661,5.70756 -0.64558,0.41879 -0.92818,0.5657 -1.47668,0.90939 -0.0809,-0.40145 -0.0319,-0.82101 -0.15165,-1.22552 -0.49147,-1.66039 -1.47998,-3.58029 -3.43839,-4.91074 -1.95316,-1.36061 -3.4964,-1.58109 -5.23555,-1.82747 -1.77223,-0.25107 -3.75082,-0.34211 -6.0973,-0.34211 l -0.039,0 -0.039,0 c -11.65978,0.15786 -26.02948,4.39068 -43.898,12.27257 l -0.0177,0.004 -0.0133,0.009 c -4.8845,2.18907 -8.70864,4.50005 -11.54504,7.54367 -2.85283,2.99112 -4.55132,7.05729 -4.55132,11.18129 0,2.31837 0.56355,4.64976 1.60661,6.73388 -5.19568,-8.07236 -13.23164,-14.79186 -23.75264,-19.77294 l -0.0133,0 -0.009,-0.004 c -5.05642,-2.37662 -14.3713,-5.34109 -29.24802,-9.60933 l -0.0177,-0.004 -0.0177,-0.004 c -4.99986,-1.39992 -8.41608,-3.122 -10.20259,-4.61194 -1.78653,-1.48996 -2.06564,-2.29096 -2.06564,-3.61594 0,-1.60166 0.22838,-2.02528 1.3944,-2.95773 1.24028,-0.94182 3.05746,-1.61093 6.13629,-1.61093 6.51644,0 13.58887,3.03821 21.49213,10.21993 l 0.004,0.004 0.004,0.004 c 6.13679,5.55307 9.69784,8.71741 12.5887,10.51871 2.93896,1.8313 6.37115,2.52034 9.96009,2.52034 4.87911,-2e-5 9.63414,-2.19286 12.90048,-5.85479 3.32296,-3.71494 5.0753,-8.61003 5.0753,-13.67563 3e-5,-8.18611 -3.28004,-16.36164 -9.11132,-24.38922 -0.002,-0.004 -0.002,-0.009 -0.004,-0.0133 -5.75241,-8.01368 -12.00701,-13.38982 -19.68633,-13.38982 -1.89043,0 -3.79244,0.31234 -5.58196,0.96568 l 0.0692,-0.0259 c -1.73128,0.60683 -3.09152,1.05481 -4.00137,1.32081 -0.38357,0.11219 -0.70542,0.15343 -0.93104,0.18624 -0.31449,-0.0501 -0.77935,-0.13968 -1.47238,-0.34211 -12.22381,-3.6328 -22.26379,-5.54733 -30.52548,-5.54733 z m 270.84506,2.8148 c -4.27062,0 -10.09084,0.71636 -18.0884,2.06131 -7.99829,1.34507 -14.5669,2.76647 -19.83356,4.32614 l -0.004,0 c -0.004,0.001 -0.009,0.002 -0.0133,0.004 -7.69336,2.25554 -13.54438,4.69956 -17.87187,8.00703 -4.32813,3.23796 -7.29251,8.11784 -7.29251,13.37684 0,3.0989 0.84877,6.22588 2.63293,8.77354 l 0.0867,0.12549 0.0953,0.11685 c 1.95156,2.49384 4.50815,4.24106 7.79052,6.07566 2.71669,1.60588 4.10417,3.53442 4.84148,7.12363 0.73935,3.59927 1.3814,14.76621 1.3814,31.62976 0,16.5668 -0.57826,29.28602 -1.66722,37.90029 l -0.004,0.0133 0,0.0133 c -0.53099,4.36545 -1.59953,5.1236 -1.74085,5.18357 -3.23776,1.35097 -5.4647,2.2784 -7.6303,4.38678 l -0.0823,0.0778 -0.0778,0.0823 c -2.05514,2.16778 -2.83646,5.11404 -2.83646,7.75156 0,3.5691 1.51346,6.98838 3.79782,9.69591 l 0.0346,0.039 0.0304,0.039 c 2.30328,2.63253 5.31887,4.58562 8.68259,5.77253 6.97469,2.51827 16.89151,3.36043 30.94123,3.36043 12.41664,0 21.27496,-0.64948 27.58944,-2.51599 3.61801,-1.00182 6.89097,-2.89593 9.31052,-5.64262 1.03268,-1.14071 1.805,-2.49728 2.46836,-3.8931 1.92799,2.24412 4.07779,4.27998 6.54769,5.95873 l 0.009,0.009 0.0133,0.009 c 6.95694,4.6828 15.72898,6.8075 25.87457,6.8075 10.129,0 19.53955,-2.92733 27.60678,-8.66095 l 0.0432,-0.0304 0.039,-0.0304 c 1.49636,-1.1037 1.80174,-1.0953 1.8058,-1.17354 0.13325,0.12039 0.13214,0.0796 0.34643,0.33777 l 0.0432,0.0519 0.0432,0.0477 c 5.41253,6.21992 13.29435,9.45776 22.05511,9.45776 6.8412,0 13.49207,-1.8393 19.61702,-5.33514 4.93545,-2.7625 9.10466,-6.29801 12.31587,-10.56636 0.87207,-1.13424 1.38777,-2.36336 2.06996,-3.55099 2.67636,5.82313 5.65679,10.45358 9.42745,13.76659 l 0.0177,0.0133 0.0177,0.0177 c 3.15632,2.73157 7.33364,3.8801 11.62732,3.8801 1.4867,0 3.07118,-0.17405 5.2572,-0.46769 l 0.0996,-0.0133 0.10398,-0.0177 c 0.98819,-0.16984 1.7635,-0.23385 2.25618,-0.23385 -0.41175,0 1.10257,0.0725 3.00968,0.25983 1.89069,0.18558 4.57548,0.46816 7.98541,0.84444 7.44352,0.91469 12.50322,1.40307 15.9058,1.40307 11.83518,0 22.38392,-3.16556 30.93258,-9.58334 3.14956,-2.34017 5.68345,-5.05966 7.91178,-7.93342 0.28697,3.08344 1.57669,6.12032 3.74585,8.27553 2.42721,2.41163 5.50972,3.97651 9.11565,5.17058 7.21185,2.38815 16.82823,3.3388 29.42987,3.3388 10.85609,0 19.20379,-0.90961 25.61476,-3.30849 3.20547,-1.19944 6.0066,-2.81241 8.14994,-5.21821 1.35686,-1.52299 2.18827,-3.43114 2.7412,-5.42176 0.48304,2.36138 1.44792,4.64969 3.09628,6.32683 2.17545,2.21343 4.91325,3.62304 8.04602,4.68556 6.26555,2.12506 14.44527,2.93607 25.1254,2.93607 11.95043,0 21.0684,-0.87196 27.9402,-3.08763 3.43591,-1.10783 6.38887,-2.55981 8.74757,-4.84146 2.35866,-2.28166 3.90607,-5.65504 3.90607,-8.99439 0,-3.98223 -2.22683,-7.83885 -5.30481,-10.21558 l -0.0133,-0.009 -0.009,-0.009 c -2.67439,-2.04586 -4.08099,-3.74747 -4.20488,-3.9364 -0.0883,-0.20509 -0.58907,-1.86205 -0.64958,-4.6336 l 0,-0.0133 -0.9657,-37.63613 c -0.14789,-7.92597 -0.83227,-14.1738 -2.39043,-19.171 -1.4683,-4.9389 -4.0899,-9.37175 -7.72123,-12.99575 l -0.009,-0.004 c -7.84093,-7.87362 -18.63833,-11.77886 -31.11446,-11.77889 -12.99415,0 -24.24612,5.96871 -32.02384,16.70697 -0.0222,-0.31737 -0.0625,-0.14811 -0.0519,-0.55862 1.5e-4,-0.007 -1.8e-4,-0.002 0,-0.009 l 1.39439,-43.69879 -0.004,0.0519 c 0.11751,-2.85922 -0.87121,-6.27621 -3.33013,-8.41413 -2.45892,-2.13791 -5.45551,-2.68922 -8.31885,-2.68922 -8.49485,0 -19.08549,1.85926 -32.20137,5.40443 -0.004,10e-4 -0.009,0.002 -0.0133,0.004 -0.009,0.002 -0.0133,0.002 -0.0222,0.004 -9.7099,2.56018 -16.31936,4.77115 -20.87287,7.69524 -4.51926,2.9021 -7.63462,7.90683 -7.63462,13.20361 2e-5,2.88826 1.23048,5.72203 3.02699,7.81218 1.79577,2.08927 4.07116,3.63085 6.72956,4.96704 1.63341,0.82259 2.28782,1.60597 2.05696,1.26884 l 0.1255,0.18181 0.13857,0.17317 c -0.28307,-0.35079 0.196,0.30005 0.40708,1.89242 l 0.004,0.0432 0.004,0.0432 c 0.75323,5.07227 1.22553,15.41701 1.22553,30.26567 0,18.95451 -0.56226,32.54999 -1.5633,40.28206 l -0.004,0.0222 0,0.0177 c -0.93227,7.65041 -3.36541,11.29753 -3.17859,11.16829 -1.29681,0.88069 -1.87351,1.66297 -2.84943,2.39475 0.7138,-2.73168 1.10425,-5.56653 1.10425,-8.49206 0,-8.98973 -3.44455,-17.22005 -9.8518,-23.45817 -3.26754,-3.18131 -7.25706,-6.12888 -11.6533,-8.96408 1.56472,0.39537 3.18295,0.61494 4.81547,0.61494 4.13956,0 8.25012,-1.42284 11.29387,-4.17459 l 0.0432,-0.0346 0.039,-0.039 c 3.01489,-2.83048 4.78084,-6.97428 4.78084,-11.112 0,-3.98535 -1.12904,-8.03729 -3.04865,-12.39815 -1.91961,-4.36092 -4.4205,-8.3949 -7.45707,-12.05603 -3.92917,-4.79889 -8.69602,-8.22356 -14.33386,-8.22356 -2.13846,0 -4.07446,0.51102 -6.08433,1.26884 -3.30758,1.18297 -5.89791,1.55029 -5.16624,1.55029 -0.57352,0 -1.68243,-0.0967 -3.13093,-0.34209 -8.16358,-1.54473 -14.05451,-2.3731 -18.41317,-2.37312 -14.11533,0 -26.21892,5.00407 -34.70874,14.77991 -6.05951,6.9547 -9.2109,15.63726 -9.2109,25.09942 0,8.90332 3.12614,17.18307 8.99871,23.9475 l 0.0133,0.0177 0.0133,0.0133 c 1.01831,1.15669 2.62634,2.17525 3.81946,3.28682 -1.2323,-0.3493 -2.48227,-0.67556 -3.75885,-0.67556 -3.74474,0 -7.75475,1.4777 -10.19391,4.51236 -1.78135,2.21623 -2.47318,4.8747 -2.81483,7.65627 -0.31373,-0.0787 -0.62929,-0.26523 -0.93537,-0.31179 -1.7119,-0.26041 -2.29709,-0.54031 -2.09594,-0.37242 -0.1204,-0.14456 -0.24853,-0.28873 -0.43307,-0.62793 -0.46723,-0.97427 -1.77804,-7.97158 -1.77981,-18.43914 l 0,-0.0177 0.21662,-15.5031 0,-0.0432 c 0,-7.82127 -0.91564,-14.26053 -3.25652,-19.55209 -2.25609,-5.33374 -6.21337,-9.90938 -11.43244,-13.641 l -0.009,-0.004 -0.0133,-0.009 c -9.68919,-6.86071 -21.52198,-10.2199 -34.88195,-10.2199 -14.96983,0 -29.43353,3.58197 -43.10985,10.64429 l -0.0304,0.0177 -0.0259,0.0133 c -5.22836,2.77658 -9.59857,6.12913 -12.94378,10.13765 l -0.0222,0.0259 -0.0222,0.0304 c -3.29736,4.05513 -5.34381,8.71058 -5.34381,13.58468 0,4.54518 1.83178,9.07137 5.17058,12.11233 3.31086,3.01548 7.7928,4.49937 12.38083,4.49937 1.01896,0 1.97329,-0.33686 2.96637,-0.47634 -6.1712,2.3769 -11.72955,5.44367 -16.24359,9.6656 l -0.004,0.004 c -6.89508,6.39541 -10.80886,14.54485 -10.80886,23.34126 0,1.1817 0.31374,2.32292 0.44171,3.49037 -0.24866,-0.10687 -0.44526,-0.21928 -0.6972,-0.32913 l -0.0432,-0.0222 c -1.93631,-0.83921 -1.9148,-1.15618 -1.99202,-1.54164 -0.0508,-0.34584 -0.28704,-3.16102 -0.38974,-7.31417 -0.10466,-4.23186 -0.16031,-10.06133 -0.16031,-17.44313 l 0,-33.41826 c 0.14102,-10.2282 0.67184,-21.52426 1.59362,-33.88162 0.71285,-7.98824 1.08261,-12.94733 1.08261,-15.76293 0,-4.18865 -0.82125,-8.14108 -3.4124,-11.27221 -2.59116,-3.13115 -6.74369,-4.60761 -10.70492,-4.60761 l 0,-0.004 z m 70.31388,67.55105 c 1.80941,0 1.73345,-0.0796 2.60259,1.76682 l 0.009,0.0177 0.009,0.0222 c 0.85165,1.77141 1.79713,6.54207 1.79713,13.51542 0,0.56197 -0.0698,0.62769 -0.12993,0.93104 -0.89486,0.10222 -2.01528,0.19911 -3.64625,0.19911 l -0.0133,0 -0.009,0 c -8.19367,0.0306 -15.52197,1.06676 -22.26295,2.7715 5.1581,-2.61106 9.93754,-6.8737 14.16497,-12.72292 l 0.065,-0.0867 c 2.294,-3.05158 4.1804,-4.99815 5.00169,-5.63395 0.78724,-0.56645 1.38968,-0.77948 2.41208,-0.77948 z m 128.39849,2.92307 c 0.29225,0 3.35988,1.03918 7.48306,4.92808 l 0.0177,0.0177 0.0222,0.0222 c 3.31284,3.06679 5.43321,4.65497 7.66061,6.30952 -3.31039,-1.78432 -6.39467,-3.62364 -10.20258,-5.29184 l -0.0222,-0.0133 c -0.002,-10e-4 -0.004,-0.002 -0.009,-0.004 -2.9685,-1.3264 -4.97618,-2.65171 -5.9241,-3.55531 -0.95271,-0.90816 -0.76649,-1.01729 -0.76649,-0.8661 0,-0.56512 -0.0452,-0.4871 0.43737,-0.95704 0.60336,-0.58742 0.67882,-0.58893 1.30347,-0.58893 z m -325.18382,9.60066 c 2.21281,0 3.56288,0.55108 5.20523,2.19121 2.5169,2.53795 4.57298,8.15436 4.57298,17.61204 0,7.30707 -1.27207,12.25944 -2.84079,14.77124 -1.56874,2.5118 -2.87555,3.26516 -6.29652,3.26516 -2.43974,0 -3.79922,-0.50149 -4.52101,-0.99601 -0.74961,-0.51359 -0.43734,-0.0776 -0.43738,-0.54995 0,-0.98846 0.0344,-2.02602 0.0996,-3.10495 l 0,-0.0133 1.60661,-28.70671 0,0.0563 c 0.16673,-2.54291 0.79628,-3.76319 1.06962,-4.08797 0.27331,-0.32477 0.21972,-0.43736 1.54164,-0.43736 z m 439.439,0 c 4.28173,0 5.6987,0.94475 7.41377,5.14459 l 0.0133,0.0304 0.0133,0.0259 c 1.2164,2.88968 2.23451,9.16148 2.23451,18.0494 0,7.46725 -0.37745,13.45076 -1.05663,17.77659 -0.67833,4.32053 -1.86131,6.9439 -2.23451,7.42244 -2.17515,2.75272 -3.19637,3.91314 -4.21788,5.70322 -0.46614,0.81699 -0.34539,1.53789 -0.53698,2.31247 -0.41621,-2.58694 -1.40101,-5.11218 -3.16559,-7.01103 -1.37072,-1.49885 -2.40617,-2.73392 -3.04865,-3.58996 -0.28451,-0.3791 -0.44603,-0.68099 -0.55862,-0.8834 -0.0743,-0.55333 -0.28822,-1.84791 -0.42005,-3.39944 -0.20376,-2.39626 -0.43511,-5.83062 -0.67989,-10.17228 l 0,-19.95047 c 0,-5.65921 1.1326,-9.12826 1.29048,-9.36249 1.03765,-1.52898 1.92591,-2.09594 4.95405,-2.09594 z m -154.21676,28.07445 0.20775,0.16031 c -0.0297,-0.024 -0.0696,-0.0326 -0.0996,-0.0563 -0.0257,-0.02 -0.0827,-0.0854 -0.1082,-0.10399 z m -83.70804,2.06996 c -4.4e-4,-4e-4 4.4e-4,0.009 0,0.009 l -0.0823,0 c 0.0865,0.002 0.0155,-0.0111 0.0823,-0.009 z m 0,0.0304 c -0.20066,-0.15875 0.33344,1.10324 0.33344,4.13562 0,4.12213 -0.75777,6.70808 -1.31646,7.62595 -0.55869,0.91786 -0.29236,0.80979 -1.60228,0.80979 -1.28447,0 -1.46566,-0.13724 -2.10894,-0.92238 -0.72398,-0.93357 -1.24285,-2.20434 -1.24283,-4.59029 0,-2.22676 0.54712,-3.60615 1.93571,-5.13595 1.43996,-1.51539 2.4361,-1.90639 4.00136,-1.92274 z m 90.32499,4.23954 c 3.52451,2.14745 6.98844,4.29596 11.29387,6.35281 l 0.0222,0.0133 0.0222,0.009 c 2.3525,1.10057 3.85838,2.19296 4.51669,2.87544 0.65833,0.68246 0.47639,0.65022 0.47634,0.55862 0,0.60107 -0.004,0.44398 -0.19046,0.57597 -0.25251,0.20043 -0.627,0.45035 -1.97903,0.45035 -1.24764,0 -2.235,-0.27444 -3.3258,-0.89206 -1.17299,-0.72924 -3.36921,-2.54987 -6.09298,-5.39579 l -0.004,-0.009 -0.009,-0.004 c -2.25953,-2.34655 -3.10741,-2.92759 -4.72887,-4.534 z m 72.35787,15.75426 c -0.0237,0.0295 -0.0244,0.0656 -0.0477,0.0953 -0.0177,0.0231 -0.0519,0.033 -0.0692,0.0563 l 0.11685,-0.15166 z m -148.70409,31.61679 0,0.004 c -1.25645,0 -2.87438,0.0918 -5.21823,0.26416 l -0.0177,0.004 -0.0177,0 c -3.52124,0.28143 -6.30405,0.41573 -8.21925,0.41573 -1.23563,0 -2.12776,-0.0302 -2.40773,-0.0519 l -0.009,0 -0.009,0 c -3.20945,-0.2429 -5.00381,-0.38107 -6.38313,-0.38107 -2.08503,0 -3.86611,0.1133 -5.65994,0.57161 -1.92273,0.49014 -3.84405,1.3768 -5.41308,2.88844 -1.59753,1.539 -2.74551,4.05169 -2.74551,6.37878 0,1.70596 0.58773,3.76102 1.85777,5.28317 l 0.0519,0.0607 0.0519,0.0605 c 1.12293,1.27137 2.08918,1.65625 3.11362,2.15658 0.0155,0.20088 0.27283,1.9873 0.27283,4.91942 0,10.51147 -0.10133,17.0684 -0.16452,17.96712 l -0.004,0.0222 0,0.0259 c -0.11219,1.81212 -0.37464,2.89888 -0.37675,3.00968 -0.0155,0.0111 0.002,-7e-5 -0.0177,0.0133 l -0.0177,0.009 -0.0133,0.009 c -1.11907,0.74533 -1.96719,1.21112 -3.13093,2.75418 -1.19527,1.55781 -1.58929,3.36913 -1.58929,4.79816 2e-5,2.08792 0.8663,4.38379 2.24751,5.95006 1.38118,1.56628 3.05415,2.48551 4.75053,3.12661 3.39272,1.28221 7.20766,1.62827 12.01706,1.62825 5.04615,0 8.66642,-0.19201 11.92613,-1.2515 l 0.0222,-0.004 0.0222,-0.009 c 1.64197,-0.54678 3.31997,-1.40074 4.70291,-2.94471 0.16097,-0.17981 0.23141,-0.43871 0.37674,-0.63658 3.39299,3.87452 8.56257,5.53001 14.0827,5.53001 4.01807,0 7.52558,-0.46873 10.67895,-1.9314 l 0.0222,-0.009 0.0177,-0.009 c 1.617,-0.76518 3.1206,-1.93326 4.25687,-3.38642 4.24862,3.10963 9.35253,4.9021 14.88816,4.9021 6.07792,0 11.85225,-1.84473 16.62469,-5.40877 l 0.004,-0.004 c 0.26533,-0.19755 0.43945,-0.517 0.6972,-0.73185 0.69217,1.08306 1.18889,2.32125 2.17822,3.21321 l 0.0133,0.0133 0.0177,0.0177 c 1.86675,1.65778 4.33246,2.29084 6.42641,2.29084 0.92717,0 1.49096,-0.0896 2.28649,-0.19911 l 0.10398,-0.0177 0.10399,-0.0177 c 0.0133,-0.002 -0.004,0.002 0.009,0 0.18336,0.0111 0.45073,0.02 0.72318,0.0477 0.59982,0.0607 1.48985,0.15986 2.60262,0.28582 2.56921,0.32395 4.27184,0.511 5.83315,0.511 4.65096,0 9.13795,-1.33811 12.70993,-4.08365 1.41134,-1.07607 2.3789,-2.56982 3.39077,-4.01001 0.78221,0.85137 1.52934,1.73009 2.44238,2.47702 4.50453,3.72115 10.21935,5.61664 16.26958,5.61664 5.11019,0 9.93939,-1.19656 14.04374,-3.71989 l 0,-0.004 0.004,0 c 1.94784,-1.20001 3.67805,-2.69516 5.045,-4.50369 l 0.0177,-0.0222 0.0177,-0.0222 c 0.11773,-0.15898 0.1858,-0.3671 0.29881,-0.53266 0.35801,0.70387 0.46264,1.53011 0.93537,2.18689 3.15729,4.41848 8.66777,6.36579 14.37285,6.36579 3.10644,0 6.08689,-0.974 8.85147,-2.41208 0.35704,0.37957 0.5206,0.83467 1.00468,1.14758 l 0.0605,0.039 0.065,0.039 c 2.36542,1.44408 3.75281,1.22119 5.33082,1.22119 3.27842,0 6.62344,-0.40582 10.01204,-1.19088 l 0.004,0 c 2.92549,-0.67314 5.36492,-1.46679 7.57831,-2.91008 0.65257,-0.4255 1.20751,-1.18226 1.81014,-1.82746 0.11375,0.10288 0.16984,0.25877 0.28582,0.35943 l 0.0133,0.0133 0.0133,0.009 c 4.46394,3.83155 10.24272,5.76386 16.39082,5.76386 6.07793,0 11.85225,-1.84473 16.62469,-5.40877 l 0.004,-0.004 c 0.26509,-0.19733 0.43956,-0.51727 0.69723,-0.73185 0.69245,1.08383 1.19256,2.3207 2.18254,3.21321 l 0.0133,0.0133 0.0222,0.0177 c 1.86682,1.6578 4.33245,2.29084 6.4264,2.29084 0.92717,0 1.49096,-0.0896 2.28649,-0.19911 l 0.10399,-0.0177 0.10399,-0.0177 c 0.035,-0.007 -0.002,-9.8e-4 0.0222,-0.004 0.18425,0.0111 0.44399,0.0251 0.71019,0.0519 0.59982,0.0608 1.48985,0.15986 2.60262,0.28582 2.5692,0.32396 4.27181,0.511 5.83314,0.511 4.65096,0 9.13796,-1.33812 12.70994,-4.08364 4.01435,-3.06071 6.62562,-7.86741 6.62562,-12.8615 0,-3.43019 -1.39451,-6.73659 -3.54232,-9.41011 0.16696,-0.13171 0.39052,-0.18514 0.54564,-0.32913 l 0.039,-0.039 0.039,-0.0346 c 1.6817,-1.62006 2.73685,-4.21698 2.73685,-6.49139 0,-2.08827 -0.54552,-3.91766 -1.32079,-5.72488 -0.77611,-1.80917 -1.7966,-3.50402 -3.03134,-5.03201 -1.68828,-2.1113 -4.24037,-4.23953 -7.7602,-4.23953 l -5.6556,0 0,0.73185 c -1.97406,-0.35096 -3.82493,-0.69287 -5.39576,-0.69287 -5.61309,0 -11.01962,2.24554 -14.56338,6.42643 l -0.004,0.004 c -0.34662,0.40825 -0.48951,0.94182 -0.79247,1.38143 -0.7762,-0.86755 -1.32709,-1.91917 -2.23884,-2.65459 l -0.004,0 c -4.22519,-3.4264 -9.57696,-5.15759 -15.21728,-5.15759 -3.53918,0 -6.98525,0.65117 -10.1636,1.98768 -3.3353,1.39652 -6.16737,3.61135 -8.609,6.22288 -0.22456,-1.7924 -0.75252,-3.66793 -2.22585,-5.22687 -1.90061,-2.01107 -4.63029,-2.73253 -6.84215,-2.73253 -4.8335,0 -9.71471,0.61479 -14.60668,1.82314 -0.7974,0.19534 -1.54803,0.7915 -2.32979,1.13024 -0.28786,-0.38805 -0.44178,-0.85094 -0.81846,-1.16922 -1.77569,-1.5004 -3.74355,-1.78416 -5.24854,-1.78416 l -2.8278,0 -0.25116,0.33777 c -4.09672,0.18004 -8.19615,0.44976 -12.27257,1.34245 -1.70587,0.37052 -3.3436,1.14095 -4.90208,2.28649 -0.0299,-0.0199 -0.0435,-0.0583 -0.0736,-0.0778 l -0.009,-0.004 -0.0133,-0.004 c -4.2202,-2.75911 -9.20436,-4.13127 -14.42915,-4.13127 -6.80594,0 -13.1706,2.19528 -18.15334,6.47405 -0.43736,0.3738 -0.60789,0.9338 -1.01333,1.33378 -0.6535,-1.24739 -1.28866,-2.5118 -2.1739,-3.60727 -1.69261,-2.1167 -4.24467,-4.23954 -7.76453,-4.23954 l -5.65559,0 0,0.73186 c -1.9722,-0.35081 -3.82091,-0.69288 -5.39144,-0.69288 -5.61309,0 -11.01962,2.24556 -14.56338,6.42643 l -0.004,0.004 c -0.34704,0.40874 -0.48898,0.94546 -0.7925,1.38575 -0.77781,-0.86834 -1.33174,-1.92375 -2.24316,-2.65891 l -0.004,0 c -4.22518,-3.4264 -9.57698,-5.15759 -15.21727,-5.15759 -3.53917,0 -6.98525,0.65115 -10.16361,1.98768 -4.13267,1.73037 -7.71276,4.48476 -10.41047,8.03736 -1.6445,2.16019 -2.83598,4.57552 -3.65058,7.11497 -0.48251,-0.51354 -0.89271,-1.09374 -1.44205,-1.53731 0.52319,-0.63958 1.12767,-1.21474 1.54597,-1.92706 l 0.009,-0.0177 0.0133,-0.0177 c 1.55603,-2.68512 2.34711,-5.78348 2.34711,-8.89912 0,-5.41021 -2.52921,-10.6697 -6.84648,-13.85318 l -0.004,-0.004 -0.009,-0.004 c -3.57624,-2.62854 -7.97574,-3.84175 -12.64497,-4.33913 l -0.28147,-0.47202 -3.20022,0 z m 312.21406,0.004 -0.12129,0.19911 c -2.60421,0.30797 -7.40935,0.59328 -15.27357,0.59328 -5.35753,0 -9.91699,-0.15432 -13.63233,-0.45036 l -0.009,0 -0.004,0 c -1.9285,-0.15011 -3.41376,-0.23385 -4.65959,-0.23385 -2.39553,0 -4.92252,0.63168 -7.01103,2.06996 -2.12104,1.44131 -4.02733,4.39875 -4.02733,7.29685 0,1.65687 0.46471,3.78785 1.95737,5.47804 l 0.11685,0.12993 0.12549,0.12549 c 1.21228,1.21111 2.14346,1.51744 3.16991,1.96604 0.0333,0.36566 0.29881,2.93101 0.29881,7.05434 0,10.29759 -0.29096,17.0011 -0.58028,19.12337 -0.15898,0.0685 -0.3599,0.14567 -0.50668,0.21218 -0.45213,0.20465 -0.61383,0.1419 -1.70188,0.95703 l -0.12992,0.0996 -0.1255,0.10398 c -1.93127,1.62798 -3.16561,4.45261 -3.16556,6.88546 0,2.03834 0.76249,4.16712 1.9487,5.72922 1.19358,1.57187 2.99506,2.82887 4.86744,3.41674 l 0.0177,0.004 0.0133,0.004 c 3.21313,0.9877 6.73892,1.11725 11.91746,1.11725 5.90472,0 10.60829,-0.34947 14.48542,-1.27314 l 0.0177,0 0.0177,-0.004 c 1.82227,-0.44499 3.75068,-1.30567 5.27452,-2.97937 1.52384,-1.67367 2.28649,-4.05781 2.28649,-6.08863 0,-1.49446 -0.70755,-3.00081 -1.49401,-4.35645 2.88249,-0.32413 5.81631,-2.09738 7.21025,-4.39977 1.72274,-2.83075 2.27593,-6.13373 2.49867,-9.76955 0.42659,0.36802 0.87389,0.61993 1.32511,0.89207 -0.0237,5.05137 -0.2328,8.64239 -0.44603,10.07268 -2.20694,1.66581 -4.26118,4.39975 -4.26118,7.63463 0,1.95191 0.7351,4.18064 2.08296,5.77253 1.34788,1.59188 3.04907,2.51333 4.70723,3.07896 l 0.0133,0.004 0.009,0.004 c 3.25523,1.09581 6.9294,1.41171 11.51907,1.41171 4.68138,0 8.31191,-0.2113 11.33283,-0.84009 2.03195,-0.42294 4.12147,-1.42294 5.69457,-3.04866 l 0.0346,-0.0304 0.0304,-0.0346 c 1.55616,-1.66195 2.56796,-4.15843 2.56796,-6.46538 0,-2.07041 -0.91183,-4.42804 -2.38176,-5.96308 -1.10195,-1.15077 -2.3968,-1.61998 -3.6679,-2.13058 -0.0379,-0.38084 -0.0541,-1.33628 -0.0953,-2.09596 1.2025,0.33604 2.40145,0.80546 3.59863,0.80546 2.88099,0 5.69196,-1.11658 8.059,-2.81045 0.009,0.2638 0.0477,0.95459 0.0477,1.08693 0,2.17022 -0.18625,3.67686 -0.29015,4.13562 -0.91116,0.63363 -1.64261,1.1129 -2.69789,2.55064 -1.22385,1.66723 -1.48969,3.45478 -1.48969,4.85446 0,2.00537 0.81442,4.18508 2.0873,5.69889 l 0.039,0.0477 0.0416,0.0473 c 1.25859,1.42879 3.00386,2.46779 4.75053,2.96638 l 0.0346,0.009 0.0346,0.009 c 3.26636,0.88711 7.01837,1.2082 11.5537,1.2082 4.30763,0 7.76573,-0.3114 10.9301,-1.55896 1.58219,-0.62378 3.16403,-1.53408 4.45606,-3.06164 0.11219,-0.13259 0.0774,-0.35158 0.18181,-0.49368 3.78641,3.34127 8.51787,5.36547 13.46778,5.36547 2.82872,0 5.51426,-0.89382 8.04602,-2.14792 2.2654,2.1355 4.0038,1.89673 5.31348,1.89673 3.96999,0 7.93709,-0.50554 11.86549,-1.50699 l 0.018,-0.004 0.013,-0.004 c 1.8527,-0.48284 3.4198,-1.29387 4.98,-2.2172 0.3264,0.27219 0.4828,0.70518 0.8315,0.94839 l 0.01,0.009 0.013,0.009 c 3.1258,2.15902 6.9137,3.01834 10.8694,3.01834 3.4399,0 6.7262,-1.08953 9.683,-2.7845 2.3322,1.63969 5.0281,2.7845 7.8295,2.7845 1.351,0 2.6908,-0.2229 4.0013,-0.5543 0.475,3.05515 1.8224,6.04944 4.1616,8.02436 3.3534,2.83676 7.7588,4.14859 12.3115,4.14859 5.68,0 11.1116,-2.13774 15.2,-6.03234 1.9549,-1.85999 3.6275,-4.0624 5.0407,-6.5347 1.4505,-2.47071 2.7401,-5.38265 3.9927,-8.82982 l 0,-0.004 4.7548,-13.06071 0.01,-0.0222 0,-0.009 c 1.2881,-3.46996 2.4624,-5.87769 3.0443,-6.76851 l 0,-0.004 c 0,-0.002 0.011,-0.0177 0.013,-0.0222 l -0.022,0.0259 -0.087,0.0346 c 0.038,-0.0133 0.071,-0.0475 0.1082,-0.0605 l 0,-0.004 c 1.7321,-0.60838 3.2838,-1.17002 4.9194,-2.87975 l 0,-0.004 c 1.5599,-1.63203 2.3601,-4.04692 2.3601,-6.06699 0,-3.18789 -2.512,-6.60425 -5.1143,-7.85546 -2.6022,-1.25123 -5.1881,-1.4767 -8.1932,-1.4767 -3.2423,0 -6.1659,0.38992 -8.8818,1.6196 -0.7433,0.32934 -1.414,1.01282 -2.1263,1.533 -1.0091,-0.78514 -1.9957,-1.67377 -3.0876,-2.06131 -2.4482,-0.87999 -4.9931,-1.12594 -7.9291,-1.12592 -3.8926,0 -7.4501,0.26143 -10.7049,0.8401 l 0,0 -0.01,0.004 c -2.5816,0.4663 -4.8449,1.10805 -6.9764,2.56364 -0.3015,0.20598 -0.5125,0.6215 -0.8011,0.88342 -0.1078,-0.0829 -0.1892,-0.19666 -0.2989,-0.27715 l -0.01,-0.009 -0.013,-0.009 c -3.956,-2.87429 -8.8339,-4.25252 -13.9745,-4.25252 -5.6608,0 -11.1892,1.41686 -16.2955,4.12262 l -0.03,0.0133 -0.03,0.0177 c -1.2609,0.68713 -2.2086,1.73072 -3.2695,2.65024 l 0,-11.54071 c 0,-1.97484 -0.6483,-4.51797 -2.529,-6.30949 -1.8807,-1.79152 -4.2948,-2.29948 -6.2272,-2.29948 -3.6274,0 -7.57414,1.01106 -13.89654,2.76283 l -0.0133,0.004 -0.0133,0.004 c -2.16843,0.61254 -4.09065,1.35249 -5.8851,2.76283 -1.79447,1.41034 -3.46873,4.03908 -3.46873,6.79018 0,0.39449 0.3758,0.75846 0.44604,1.17357 -3.1437,0.1399 -6.25384,0.95483 -9.16327,2.46404 l -0.0133,0.009 -0.009,0.004 c -2.5339,1.32698 -4.64375,3.22113 -6.52602,5.33947 -0.0279,-1.55847 -0.38244,-3.52604 -1.89675,-5.22688 -0.11795,-0.13259 -0.29331,-0.16097 -0.42007,-0.28147 1.19037,-1.73474 2.02233,-3.70404 2.02233,-5.75521 0,-3.0587 -2.0218,-6.35566 -4.46903,-7.90311 -2.44822,-1.56672 -5.21515,-2.0743 -8.00705,-2.0743 -3.48132,0 -7.00658,0.78877 -10.54036,2.19988 -2.009,0.79955 -3.87165,1.85174 -5.41742,3.54666 -1.54579,1.69492 -2.58963,4.19331 -2.58963,6.57799 0,0.67239 0.40562,1.31234 0.57162,1.98768 -1.27578,-0.37885 -2.57051,-0.74917 -3.87143,-0.74917 -2.50001,0 -4.93055,0.77525 -7.08033,2.06564 -1.17549,-1.11896 -2.36526,-1.62608 -3.21756,-1.82312 -1.05749,-0.24458 -1.9122,-0.27715 -2.81045,-0.27715 l -0.0259,0 -0.0259,0 c -2.79057,0.0257 -5.89112,0.74644 -9.11564,1.59359 -0.0712,-4.38341 -1.59408,-8.65347 -4.33481,-12.13829 l -0.0133,-0.0177 -0.0177,-0.0222 c -1.40221,-1.75104 -3.84317,-3.55965 -6.83349,-3.55965 l -3.20022,0 z m 30.29165,16.7979 0.14301,0.19046 c -0.0317,-0.0432 -0.0634,-0.045 -0.0953,-0.0867 -0.0419,-0.0539 -0.002,-0.0479 -0.0477,-0.10399 z m -298.28293,11.01672 0.0736,0.0605 c 1.44728,1.23933 1.47235,2.63366 1.47238,2.77585 0,0.32666 -0.16607,0.55698 -0.009,0.34209 -0.16319,0.21219 -1.24525,0.73186 -1.38143,0.73186 -0.0736,0 -0.97898,-0.31633 -1.2515,-0.61492 -0.2542,-0.27855 -0.35943,-0.85015 -0.35943,-0.64091 0,-0.31577 0.2532,-1.64334 1.24717,-2.55931 0.0987,-0.0909 0.1102,-0.02 0.20776,-0.0953 z m 158.59489,0 0.0736,0.0605 c 1.42912,1.22379 1.46803,2.61107 1.46803,2.77585 0,0.16939 -0.0432,0.3097 -0.065,0.38107 -0.22489,0.22061 -1.19487,0.69288 -1.32511,0.69288 -0.0736,0 -0.96714,-0.30808 -1.24718,-0.61492 -0.26154,-0.28658 -0.36377,-0.86269 -0.36377,-0.64091 0,-0.30998 0.24733,-1.63501 1.24285,-2.55499 0.10243,-0.0947 0.11485,-0.0224 0.21662,-0.0996 z m 116.25153,7.27087 c 0.0177,0.007 0.0339,0.0275 0.0519,0.0346 l -0.0259,-0.009 c -10e-4,-5.1e-4 -0.0242,-0.0253 -0.0259,-0.0259 z m 38.55851,3.23485 -0.0867,0.078 c 0.0133,-0.0111 0.0177,-0.031 0.0304,-0.0432 0.0155,-0.0155 0.0403,-0.0199 0.0563,-0.0346 z m 89.48059,4.71588 c 0.5296,0 1.8321,0.60082 2.2215,1.09129 l 0.061,0.0736 c 0.2275,0.29642 0.2962,0.58445 0.3205,0.66689 -0.018,0.0525 -0.1628,0.50583 -0.2598,0.61492 l -0.056,0.065 c -0.051,0.0554 -0.9028,0.53264 -1.3857,0.53264 l -0.1776,-0.004 c -0.3047,-0.009 -1.8865,-0.5378 -2.8581,-1.81446 0.6473,-0.54845 1.6384,-1.22552 2.1349,-1.22554 z m -288.4831,4.2049 c -0.14722,0.0736 -0.15897,0.11419 -0.27715,0.1776 -0.0155,-0.001 -0.0288,-0.002 -0.0432,-0.004 l 0.32047,-0.17317 z m -68.79822,26.31628 c -12.37713,0 -21.43007,0.83724 -28.05713,3.22188 -3.3116,1.19155 -6.22961,2.89048 -8.40544,5.43474 -0.0838,0.098 -0.11396,0.23292 -0.19489,0.33345 -1.91932,-2.67508 -4.64701,-4.75612 -7.73857,-5.86346 -6.47596,-2.37112 -15.82499,-3.02269 -29.71137,-3.02269 -13.30851,0 -25.35323,1.19401 -36.14644,3.64628 -5.42509,1.22587 -9.92153,3.03448 -13.39848,6.02802 -3.47791,2.99431 -5.62097,7.49072 -5.62097,12.06902 0,4.44359 2.04528,8.7985 5.33947,11.8092 l 0.0259,0.0259 0.0259,0.0222 c 2.73446,2.43635 5.68307,3.38476 10.08135,4.78084 l 0.0177,0.004 0.0177,0.004 c 2.44511,0.75862 3.88274,1.63978 4.17891,1.9054 0.30924,0.27735 3.36071,3.74064 7.42242,9.03337 l 0.0133,0.0222 25.52816,32.68639 -15.09172,18.93716 -0.009,0.009 c -7.73065,9.78813 -13.37944,16.04798 -15.60702,17.89783 -2.15964,1.73206 -4.62302,2.64794 -8.11963,2.75419 l -0.0177,0.004 -0.0177,0 c -4.59684,0.1674 -8.86293,1.33536 -12.16862,4.09664 l -0.0346,0.0304 -0.039,0.0346 c -0.7633,0.65955 -1.14971,1.61829 -1.74086,2.42939 -1.38518,-1.63694 -3.09116,-3.07965 -5.20956,-3.7502 l -0.065,-0.0222 -0.0605,-0.0177 c -3.03144,-0.88216 -4.91278,-2.00816 -5.35245,-2.18687 -0.11752,-0.47648 -0.98999,-2.57812 -1.4334,-5.83749 l 0,0.0259 c -1.49994,-11.38376 -3.92709,-20.1668 -8.03736,-26.64106 -3.99052,-6.28574 -10.28638,-10.84936 -18.0364,-13.80121 5.32132,-3.06429 9.84832,-7.22099 13.00007,-12.60601 l 0.009,-0.0133 0.004,-0.0177 c 3.51276,-6.08191 5.2875,-12.93083 5.2875,-20.15835 0,-12.78485 -5.32938,-23.81454 -15.26058,-31.16206 l 0,-0.004 -0.004,0 c -9.37315,-6.9123 -20.97022,-10.52563 -34.14144,-11.36748 l 0,-0.36375 -5.65128,0 c -2.95692,0 -7.53105,0.25069 -14.10433,0.73617 l -0.0177,0.004 -0.0177,0 c -10.20305,0.81819 -18.32721,1.22119 -24.25065,1.22119 -3.63383,0 -6.28681,-0.0787 -7.68225,-0.19046 l -0.0133,0 -0.009,0 c -9.09347,-0.69055 -14.57772,-1.04796 -17.41284,-1.04796 -5.42314,0 -9.82947,0.35919 -13.5457,1.31214 -4.19173,1.07175 -7.89992,2.86924 -10.76556,5.6426 -2.84837,2.75319 -4.60329,6.69717 -4.60329,10.66162 0,2.92865 0.89591,6.01234 2.84946,8.36215 l 0.0519,0.0605 0.0519,0.0605 c 2.0584,2.33835 4.50389,3.67095 7.78619,5.24421 1.89515,0.94983 2.67139,1.88686 3.26084,3.99702 0.59445,2.12807 1.22986,8.60343 1.22986,17.97579 0,30.10474 -0.21197,48.04756 -0.49801,52.11723 l 0,0.0222 0,0.0259 c -0.39561,6.41077 -1.27001,10.8732 -1.87509,12.38948 l -0.0133,0.0346 -0.0133,0.0346 c -0.53346,1.39028 -1.62002,2.8058 -3.91476,4.32182 l -0.0133,0.009 -0.0177,0.009 c -2.86334,1.91341 -4.79927,3.24417 -6.50004,5.54301 -1.67006,2.18232 -2.28649,4.8319 -2.28649,7.3055 0,3.64949 1.38008,7.31375 3.78918,10.05537 2.4091,2.74161 5.62196,4.64131 9.37978,6.06699 7.51561,2.85132 17.51694,3.9797 30.56881,3.9797 13.9121,0 23.81751,-0.79684 30.77666,-3.06597 l 0.0222,-0.009 0.0222,-0.004 c 3.51437,-1.17423 6.59558,-2.87272 8.91213,-5.46939 2.31653,-2.59668 3.59428,-6.12489 3.59428,-9.592 0,-5.80288 -3.83853,-11.02705 -9.09833,-13.92679 l 0.0823,0.0477 c -1.69232,-0.96934 -2.70756,-1.86758 -2.53765,-1.68022 0.1348,0.14855 -0.0492,-0.11907 -0.2164,-0.67988 -0.93606,-4.17981 -1.50701,-10.66789 -1.50701,-19.14936 0,-4.86837 0.53989,-7.36244 0.49366,-7.69958 3.18164,0.20797 4.8913,1.03323 6.11029,2.39475 l 0.0259,0.0304 0.0259,0.0304 c 1.3273,1.44134 3.27582,5.26803 4.73754,11.31984 l 0,0.004 c 2.49537,10.2831 4.63317,17.88797 6.57365,23.12471 l 0.009,0.0346 0.0133,0.0304 c 2.01818,5.2447 4.50974,9.76631 7.58265,13.50241 l 0.004,0.004 c 7.11654,8.74309 18.72638,12.70993 33.10214,12.70993 10.52253,0 19.15685,-1.34032 26.05645,-4.55131 l 0.0177,-0.009 0.0222,-0.009 c 3.32425,-1.57838 6.22379,-3.84527 8.43144,-6.70356 l 0.0259,-0.0346 0.0259,-0.0346 c 0.11019,-0.14723 0.15786,-0.32657 0.26416,-0.47637 0.18425,0.25731 0.27021,0.57104 0.46767,0.81846 2.27412,2.84937 5.34625,5.00943 8.79952,6.0973 6.85951,2.15869 15.72061,3.04433 27.01783,3.04433 10.0907,0 18.97175,-1.13241 26.6757,-3.55098 l 0.009,-0.004 c 3.40183,-1.05058 6.46348,-2.75623 8.68259,-5.40876 2.22117,-2.65498 3.32148,-6.15189 3.32148,-9.58766 2e-5,-4.80031 -2.52287,-9.45934 -6.37446,-12.35483 l 0.0867,0.065 c -0.75318,-0.58924 -1.01847,-0.8912 -1.43772,-1.29047 0.49074,-0.98123 1.19035,-2.25692 2.24319,-3.95804 l 0.009,-0.0133 c 1.81214,-2.84328 4.04342,-5.71081 6.2835,-8.58301 2.72712,3.74775 5.3288,7.39725 6.74256,9.87781 1.4208,2.49293 1.60142,3.49047 1.77981,3.97537 -0.34227,0.28059 -0.47237,0.44404 -1.08694,0.84445 l -0.039,0.0259 -0.0432,0.0259 c -3.89886,2.63796 -6.60398,7.19637 -6.60398,11.90447 0,3.94032 1.92557,7.76313 4.78084,10.42776 2.8709,2.67922 6.54023,4.39459 10.66596,5.38712 l 0.0432,0.009 0.0432,0.009 c 6.62118,1.48353 15.64546,2.10029 27.58944,2.10029 11.09621,0 19.81132,-0.34147 26.35093,-1.06962 l 0.004,0 c 6.49842,-0.65534 12.08601,-1.81478 16.8412,-3.64193 l 0.004,0 0.004,0 c 3.51821,-1.35635 6.61967,-3.57517 8.95541,-6.4784 l 0.0259,-0.0346 0.0304,-0.0346 c 2.34787,-3.01235 3.7632,-6.71229 3.7632,-10.49273 0,-3.72749 -1.3335,-7.54937 -3.98405,-10.23289 -2.62133,-2.72288 -5.9848,-4.27772 -10.19824,-5.65994 l -0.0304,-0.0133 -0.0346,-0.009 c -1.98047,-0.6239 -3.23984,-1.31877 -3.74587,-1.7192 -0.57829,-0.45765 -2.34866,-2.25824 -4.56431,-5.0017 l -38.41994,-48.29343 11.2852,-14.18663 0.0133,-0.0177 c 4.62783,-5.89786 8.60048,-10.02913 11.53204,-12.29422 3.02218,-2.28326 5.54001,-3.2408 7.62596,-3.40809 2.67775,-0.17804 4.90378,-0.39883 6.77286,-0.6972 1.88875,-0.30147 3.28157,-0.47477 5.20524,-1.54596 l 0.0432,-0.0222 0.039,-0.0259 c 4.50241,-2.60758 7.44841,-7.73834 7.44841,-12.93945 0,-3.74215 -1.1867,-7.49607 -3.59429,-10.34981 -2.40759,-2.85376 -5.74765,-4.68566 -9.50539,-5.79852 -5.71849,-1.71629 -12.94125,-2.39908 -22.08973,-2.39908 z m -36.37164,26.86191 c 0.65405,0.81491 1.09332,1.807 1.94005,2.42941 l -0.0736,-0.0519 c 0.66642,0.50605 1.04916,0.81677 1.52432,1.19088 -0.52809,0.81485 -1.17219,1.7654 -2.26917,3.10062 -0.71223,0.86691 -1.08312,1.18929 -1.6196,1.7625 -0.40889,-0.46406 -0.64447,-0.64236 -1.15622,-1.30779 -0.95415,-1.24079 -1.42713,-2.22248 -1.82314,-3.01834 0.0426,-0.0302 0.0177,-0.0133 0.0607,-0.0432 l 0.009,-0.004 0.0133,-0.009 c 1.45947,-1.02801 2.42482,-2.55433 3.39509,-4.04901 z m -184.62103,7.14137 c 3.36975,0 4.63967,0.72593 5.96307,2.59395 1.32338,1.86801 2.48569,5.69244 2.48569,11.66197 0,6.09841 -1.3054,9.6809 -2.71521,11.32418 -1.35232,1.51401 -3.83035,2.64536 -8.65228,2.69787 -0.0226,-0.21418 -0.0736,-0.24594 -0.0736,-0.50666 l 0,-0.79247 1.12594,-23.9172 0,-0.009 c 0.0696,-1.60301 0.36602,-2.53011 0.48934,-2.93171 0.234,-0.0519 0.627,-0.12129 1.37708,-0.12129 z m 92.56817,95.46093 0.0736,0.11264 c -0.0111,-0.0177 -0.0317,-0.0302 -0.0432,-0.0477 -0.0133,-0.02 -0.0177,-0.0452 -0.0304,-0.065 z"
       id="path4306-1"
       inkscape:connector-curvature="0"
       sodipodi:nodetypes="ccccsccccccccccscscccccscscccccccccsccsccccccccccccccccccscscsccccccscsccccccccccccssccccccscccccccsscscccsscsccsccccccccsccccsccccsscccccccsccccsccccccscccccccsccccccsccccccsccssssscssssssccccccccccscccccsscccssscccccccscccccsscscccsscscccscsccccsscscccccsccccsccccccssscccsccccssccsscccccccscsccccccccccccccccsccccccssssccccccccccccssccccccccscccccccccscccssscscccccccccsccccccccccccccccscccsccsccccsccccccccscsscccccsccccsccccccsccccccscccsccccccccsccccscccccccsccccccsccccccscsccccsscsccscccccsccssccsscccccccscccsccscccccscccccccscccccccccscccscsccccsccccccccccscccsscccccsscccsscccssccscsccsccccccssccscscccccccscsccsccccccccscccccccscscccsccccccccsccccssscccsscccccccscscsscsccsccccccscccccccccccscccccccscsccccccccccccccccccccccccccccccccccccscssccccccccccccccccccccccccccsccccscccccscccscccsccsccccssccccccccccsssscccssccccscccccccccccscccccccccsccssccccccsccccsscccsccccccccscccccccccccccccsscccccccscccccccccssccsccccccccccc" />
    <g
       id="g4318"
       transform="matrix(2.2172018,0,0,2.2172018,-304.77301,-472.84521)">
      <g
         id="text4147"
         style="font-style:normal;font-weight:normal;font-size:97.68354797px;line-height:125%;font-family:sans-serif;letter-spacing:0px;word-spacing:0px;fill:#000000;fill-opacity:1;stroke:none;stroke-width:1px;stroke-linecap:butt;stroke-linejoin:miter;stroke-opacity:1"
         transform="scale(1.0134629,0.98671593)">
        <path
           id="path4306"
           style="font-style:normal;font-variant:normal;font-weight:normal;font-stretch:normal;font-family:'Cooper Black';-inkscape-font-specification:'Cooper Black, ';letter-spacing:-1.62029231px"
           d="m 183.83225,449.77701 q 4.9128,0 12.87821,2.43255 0.95394,0.28618 1.5263,0.28618 0.47697,0 2.86182,-0.85854 0.76316,-0.28619 1.6217,-0.28619 3.19571,0 6.72529,5.05589 3.57727,5.05589 3.57727,9.6348 0,2.67104 -1.62169,4.53122 -1.57401,1.81249 -3.86347,1.81249 -1.90788,0 -3.1003,-0.76315 -1.19243,-0.76316 -5.24668,-4.53122 -5.72364,-5.34207 -11.2565,-5.34207 -2.67104,0 -4.29273,1.28782 -1.57401,1.28782 -1.57401,3.38649 0,4.14964 7.29765,6.24831 9.87329,2.90952 12.63972,4.24504 12.16274,5.91443 12.16274,17.40942 0,10.15947 -8.29928,16.59857 -8.49008,6.58219 -22.17913,6.58219 -6.10522,0 -12.8782,-1.43091 -6.77298,-1.47861 -9.77789,-3.43418 -2.28946,-1.52631 -4.14965,-6.62989 -1.81248,-5.15128 -1.81248,-10.01638 0,-2.33716 0.95394,-3.52958 1.19242,-1.52631 3.00491,-1.52631 1.81249,0 3.48188,1.86019 1.00164,1.04933 4.72201,6.72528 1.76479,2.67103 5.58056,4.43582 3.86346,1.76479 7.9654,1.76479 3.52958,0 5.72365,-1.28782 2.19406,-1.33551 2.19406,-3.38649 0,-1.90788 -1.71709,-3.29109 -1.7171,-1.38322 -5.58056,-2.57564 -6.82067,-2.14637 -10.39795,-3.91116 -3.57728,-1.81249 -6.67759,-4.53122 -7.53613,-6.67759 -7.53613,-15.16766 0,-4.19734 1.95558,-8.15619 1.95558,-4.00656 5.53285,-6.91608 8.01311,-6.72528 19.55579,-6.72528 z"
           inkscape:connector-curvature="0" />
        <path
           id="path4308"
           style="font-style:normal;font-variant:normal;font-weight:normal;font-stretch:normal;font-family:'Cooper Black';-inkscape-font-specification:'Cooper Black, ';letter-spacing:-1.62029231px"
           d="m 239.6869,468.95122 q 2.90952,0 3.62498,0.52467 0.71545,0.47697 0.71545,2.48025 0,1.76479 1.14473,1.76479 0.47697,0 3.1957,-1.81249 2.05098,-1.38321 5.19898,-2.28946 3.1957,-0.95394 5.77134,-0.95394 6.05753,0 10.82723,4.19734 3.62498,3.1957 5.62825,8.0608 2.09867,5.10358 2.09867,10.73184 0,12.01965 -8.10849,19.79427 -6.24832,6.05752 -14.21372,6.05752 -4.05425,0 -8.34699,-1.90788 -0.85854,-0.38157 -1.38321,-0.38157 -1.43091,0 -1.43091,2.86182 0,3.76807 2.52794,5.43746 2.33716,1.574 2.76643,2.09867 0.47697,0.57237 0.47697,1.86019 0,2.86182 -3.1957,4.38812 -3.1957,1.57401 -9.01474,1.57401 -10.35026,0 -18.12488,-4.14965 -3.95885,-2.09867 -3.95885,-5.19897 0,-1.43091 0.57236,-2.19407 0.62006,-0.71545 2.33716,-1.5263 2.48024,-1.14473 3.00491,-4.14965 0.57236,-3.00491 0.85855,-17.26633 -0.33388,-11.73347 -0.85855,-13.16438 -0.19079,-0.47697 -0.57237,-0.62006 -0.33387,-0.14309 -2.33715,-0.52467 -1.52631,-0.28618 -2.48025,-1.38321 -0.95394,-1.14473 -0.95394,-2.71874 0,-1.90788 1.33552,-3.33879 1.33552,-1.47861 4.34043,-2.86182 11.68578,-5.29437 18.55415,-5.38977 z m 4.72201,18.02949 -0.71546,13.11668 q -0.0477,0.81085 -0.0477,1.57401 0,1.4786 1.28782,2.38485 1.28782,0.90624 3.43418,0.90624 6.5822,0 6.5822,-10.82723 0,-7.01146 -2.76643,-9.87329 -1.7171,-1.76479 -4.10195,-1.76479 -3.38649,0 -3.67267,4.48353 z"
           inkscape:connector-curvature="0" />
        <path
           id="path4310"
           style="font-style:normal;font-variant:normal;font-weight:normal;font-stretch:normal;font-family:'Cooper Black';-inkscape-font-specification:'Cooper Black, ';letter-spacing:-1.62029231px"
           d="m 306.94114,478.39524 0,15.31075 q 0,10.15947 0.28618,11.82887 0.33388,1.66939 2.38485,2.57564 1.76479,0.76315 2.33716,1.43091 0.62006,0.66776 0.62006,1.90788 0,1.574 -1.14473,2.86182 -1.09703,1.28782 -2.95722,1.81249 -3.43418,1.04934 -11.59038,1.04934 -9.20553,0 -12.9259,-1.38322 -1.71709,-0.62006 -2.81412,-1.90788 -1.09703,-1.33552 -1.09703,-2.76643 0,-1.14473 0.57236,-1.76479 0.62006,-0.62006 2.62334,-1.47861 1.86018,-0.81085 2.28946,-4.43582 0.76315,-6.20062 0.76315,-17.64791 0,-11.63808 -0.66776,-14.97687 -0.66776,-3.3388 -3.33879,-4.9605 -2.00328,-1.14472 -2.76643,-2.14636 -0.71546,-1.04934 -0.71546,-2.52795 0,-2.33715 2.24176,-4.05424 2.24176,-1.7648 7.15456,-3.2434 3.2911,-1.00164 8.53777,-1.90789 5.24668,-0.90624 7.63153,-0.90624 3.76807,0 3.76807,4.67431 0,1.52631 -0.47698,7.01147 -0.62006,8.53777 -0.71545,15.64463 z"
           inkscape:connector-curvature="0" />
        <path
           id="path4312"
           style="font-style:normal;font-variant:normal;font-weight:normal;font-stretch:normal;font-family:'Cooper Black';-inkscape-font-specification:'Cooper Black, ';letter-spacing:-1.62029231px"
           d="m 340.99824,468.66504 q 8.29929,0 14.07063,4.19734 3.05261,2.24176 4.24504,5.15128 1.24012,2.86182 1.24012,7.91771 l -0.0954,7.10686 q 0,7.39304 1.04933,9.58711 0.52467,1.04933 1.00164,1.33551 0.47697,0.28619 2.00328,0.52467 1.5263,0.23849 1.5263,2.00328 0,2.28946 -1.86018,4.7697 -1.81249,2.48025 -4.72201,4.14964 -3.57728,2.09867 -7.48843,2.09867 -5.00819,0 -7.91771,-3.43418 -1.00164,-1.24013 -1.86019,-1.24013 -0.95394,0 -2.52794,1.19243 -4.76971,3.48188 -10.82723,3.48188 -6.24831,0 -10.11177,-2.67103 -2.52795,-1.76479 -4.00656,-4.57892 -1.47861,-2.86182 -1.47861,-5.96213 0,-4.96049 4.00656,-8.77625 6.24831,-6.00983 18.69724,-6.05753 2.76643,0 3.48188,-0.52467 0.71546,-0.57236 0.71546,-2.57564 0,-5.05588 -1.04934,-7.29764 -1.04933,-2.28946 -3.43418,-2.28946 -1.43092,0 -2.57564,0.85854 -1.09704,0.85855 -2.76643,3.14801 -4.24504,6.05752 -8.87165,6.05752 -2.33716,0 -3.81577,-1.38321 -1.47861,-1.38321 -1.47861,-3.62498 0,-2.28945 1.81249,-4.57891 1.86019,-2.28946 5.00819,-4.00655 8.63317,-4.57892 18.02948,-4.57892 z m -3.1957,27.61659 q -2.09867,0 -3.67267,1.71709 -1.5263,1.7171 -1.5263,4.10195 0,2.28946 1.09703,3.72037 1.09703,1.38321 2.90952,1.38321 3.81576,0 3.81576,-6.4391 0,-2.62334 -0.57236,-3.52958 -0.52467,-0.90624 -2.05098,-0.95394 z"
           inkscape:connector-curvature="0" />
        <path
           id="path4314"
           style="font-style:normal;font-variant:normal;font-weight:normal;font-stretch:normal;font-family:'Cooper Black';-inkscape-font-specification:'Cooper Black, ';letter-spacing:-1.62029231px"
           d="m 386.59802,468.71274 q 2.38485,0 7.77461,1.04933 1.09704,0.19079 1.81249,0.19079 0.81085,0 3.14801,-0.85855 1.09703,-0.42927 1.86018,-0.42927 2.19407,0 4.43583,2.81413 1.81249,2.24176 2.95721,4.91279 1.14473,2.67104 1.14473,4.62661 0,1.90789 -1.33551,3.19571 -1.33552,1.24012 -3.3388,1.24012 -1.66939,0 -3.00491,-0.81085 -1.28782,-0.81085 -4.19734,-3.57728 -3.05261,-2.95721 -5.05589,-2.95721 -1.33551,0 -2.33715,1.00163 -0.95394,0.95394 -0.95394,2.28946 0,2.33716 4.48352,4.38813 8.0608,3.62497 12.35353,7.91771 3.62498,3.62497 3.62498,8.87165 0,6.62989 -5.81904,11.06571 -5.00819,3.86346 -12.25814,3.86346 -1.86019,0 -6.77298,-0.62006 -4.62662,-0.52466 -5.19898,-0.52466 -0.62006,0 -1.43091,0.14309 -1.38322,0.19078 -2.00328,0.19078 -2.24176,0 -3.52958,-1.14472 -1.95558,-1.7648 -3.62497,-5.53286 -1.6694,-3.81577 -1.6694,-6.5345 0,-4.38812 3.43419,-4.38812 1.33551,0 2.43255,0.90624 1.14473,0.85855 4.722,4.67431 1.95558,2.09867 3.2434,2.90952 1.28782,0.76315 2.76643,0.76315 1.574,0 2.52794,-0.81085 0.95395,-0.85854 0.95395,-2.24176 0,-2.14637 -3.67268,-3.91116 -7.67922,-3.76806 -11.11341,-7.77462 -3.38649,-4.00655 -3.38649,-9.25322 0,-5.67595 3.48189,-9.7779 4.96049,-5.86673 13.54596,-5.86673 z"
           inkscape:connector-curvature="0" />
        <path
           id="path4316"
           style="font-style:normal;font-variant:normal;font-weight:normal;font-stretch:normal;font-family:'Cooper Black';-inkscape-font-specification:'Cooper Black, ';letter-spacing:-1.62029231px"
           d="m 438.97078,453.44968 -0.62006,19.98506 q -0.0954,3.57728 2.19406,3.57728 1.14473,0 2.24176,-1.574 4.62661,-6.72528 12.35354,-6.72528 7.58383,0 12.06735,4.62661 2.00327,2.05097 2.81412,4.8651 0.85855,2.81412 0.95394,8.0608 l 0.42928,17.21863 q 0.0477,2.24176 0.57236,3.2911 0.57237,1.04933 2.57564,2.62334 1.38322,1.09703 1.38322,2.62333 0,5.15129 -15.54924,5.15129 -13.83214,0 -13.83214,-4.81741 0,-0.81085 0.23848,-1.24012 0.23849,-0.42927 1.6694,-2.28946 2.00328,-2.62334 2.00328,-13.11669 0,-6.3437 -1.19243,-9.25322 -1.574,-3.95886 -5.62825,-3.95886 -2.90952,0 -4.29274,2.09867 -1.00163,1.52631 -1.00163,5.72365 l 0,9.20553 q 0.33388,6.10522 0.57236,6.91607 0.23849,0.81085 2.19406,3.00491 0.90625,1.00164 0.90625,2.33716 0,5.38977 -14.02293,5.38977 -16.40779,0 -16.40779,-5.58056 0,-1.28782 0.52467,-1.95558 0.52467,-0.71545 2.57564,-2.14637 1.81249,-1.28782 2.48025,-6.91607 0.71545,-5.67594 0.71545,-18.74494 0,-10.25486 -0.57236,-14.21371 -0.19079,-1.47861 -0.71546,-2.14637 -0.47697,-0.71546 -1.86018,-1.43091 -2.95722,-1.52631 -2.95722,-3.52958 0,-2.38486 2.24176,-3.86346 2.24176,-1.47861 8.58547,-3.19571 8.58547,-2.38485 13.68905,-2.38485 2.76643,0 2.67104,2.38485 z"
           inkscape:connector-curvature="0" />
      </g>
      <g
         id="text4147-2"
         style="font-style:normal;font-weight:normal;font-size:33.33692932px;line-height:125%;font-family:sans-serif;letter-spacing:0px;word-spacing:0px;fill:#000000;fill-opacity:1;stroke:none;stroke-width:1px;stroke-linecap:butt;stroke-linejoin:miter;stroke-opacity:1"
         transform="scale(1.0004841,0.99951614)">
        <path
           id="path4279"
           style="font-style:normal;font-variant:normal;font-weight:normal;font-stretch:normal;font-family:'Cooper Black';-inkscape-font-specification:'Cooper Black, ';letter-spacing:-0.55296487px"
           d="m 345.57902,531.4796 q -0.61856,0 -0.79761,0.37439 -0.16278,0.37439 -0.16278,1.74173 0,2.06728 0.26044,3.223 0.0814,0.32556 0.24417,0.50461 0.16278,0.17906 0.61856,0.4395 0.97666,0.53717 0.97666,1.41617 0,1.07434 -1.36733,1.53011 -1.35106,0.43951 -4.59034,0.43951 -6.02279,0 -6.02279,-2.2789 0,-0.39066 0.17906,-0.61855 0.17906,-0.24417 0.81389,-0.66739 0.71622,-0.47206 0.96039,-1.10689 0.26045,-0.65111 0.35811,-2.23006 0.0814,-1.15572 0.0814,-8.2854 0,-2.26261 -0.22789,-3.0765 -0.22789,-0.81389 -0.97667,-1.18828 -0.71622,-0.34184 -0.96039,-0.61856 -0.24416,-0.293 -0.24416,-0.74878 0,-0.60228 0.45578,-1.04178 0.47205,-0.45578 1.30222,-0.66739 0.69994,-0.17905 1.92078,-0.17905 0.53717,0 2.68584,0.16278 0.40694,0.0326 1.28594,0.0326 1.465,0 3.90667,-0.19533 1.54639,-0.11395 2.16495,-0.11395 3.48345,0 5.76234,1.67662 2.051,1.51383 2.051,4.19967 0,1.49756 -0.71622,2.73467 -0.71622,1.22083 -1.96961,1.83939 -0.52089,0.26044 -0.52089,0.61856 0,0.47205 0.79761,0.76505 1.70917,0.61856 2.50678,1.87195 0.79761,1.25339 1.13945,3.84156 0.1465,1.07433 0.42322,1.39989 0.27672,0.30928 1.28594,0.60228 0.30928,0.0977 0.52089,0.42322 0.21162,0.30928 0.21162,0.69995 0,0.50461 -0.39067,1.0255 -0.39067,0.50461 -1.00923,0.79761 -1.36733,0.63483 -3.74389,0.63483 -3.17417,0 -4.5415,-1.67661 -0.61856,-0.74878 -1.05806,-1.88822 -0.42322,-1.13945 -1.00922,-3.54856 -0.37439,-1.5464 -0.96039,-2.18123 -0.56973,-0.63483 -1.64406,-0.68367 z m -0.94411,-8.30167 -0.17906,3.79272 q 0,0.0488 0,0.1465 0,0.586 0.16278,0.78134 0.17905,0.19533 0.69994,0.19533 1.43245,0 2.08356,-0.7325 0.65111,-0.74878 0.65111,-2.37656 0,-3.14161 -2.23005,-3.14161 -0.63484,0 -0.89528,0.293 -0.26045,0.293 -0.293,1.04178 z"
           inkscape:connector-curvature="0" />
        <path
           id="path4281"
           style="font-style:normal;font-variant:normal;font-weight:normal;font-stretch:normal;font-family:'Cooper Black';-inkscape-font-specification:'Cooper Black, ';letter-spacing:-0.55296487px"
           d="m 374.81442,533.53061 -7.65056,0 q -0.50461,0 -0.50461,0.4395 0,1.05805 1.13944,2.00217 1.15573,0.92783 2.47423,0.92783 0.78133,0 1.72544,-0.293 0.96039,-0.30928 1.57895,-0.74878 0.55345,-0.39067 0.879,-0.39067 0.42322,0 0.83017,0.52089 0.40694,0.52089 0.40694,1.07434 0,1.172 -1.465,2.26261 -2.58817,1.93706 -5.97395,1.93706 -3.41834,0 -5.72978,-1.98589 -1.12317,-0.97667 -1.85567,-2.36028 -0.96039,-1.83939 -0.96039,-3.87412 0,-2.73467 1.66033,-4.91589 1.43245,-1.88823 3.64623,-2.81606 1.66033,-0.69995 3.59739,-0.69995 3.09278,0 5.25773,1.758 1.09061,0.87901 1.758,2.08356 0.76506,1.36734 0.76506,2.66956 0,1.05806 -0.4395,1.74173 -0.4395,0.66739 -1.13945,0.66739 z m -7.22734,-3.04395 1.64406,0 q 1.04178,0 1.04178,-0.96039 0,-0.879 -0.50461,-1.43245 -0.50462,-0.55344 -1.31851,-0.55344 -0.91155,0 -1.43244,0.71622 -0.48834,0.66739 -0.48834,1.35106 0,0.48833 0.22789,0.68366 0.24417,0.19534 0.83017,0.19534 z"
           inkscape:connector-curvature="0" />
        <path
           id="path4283"
           style="font-style:normal;font-variant:normal;font-weight:normal;font-stretch:normal;font-family:'Cooper Black';-inkscape-font-specification:'Cooper Black, ';letter-spacing:-0.55296487px"
           d="m 383.40958,524.61037 q 0.81389,0 2.65328,0.35811 0.37439,0.0651 0.61856,0.0651 0.27672,0 1.07433,-0.293 0.37439,-0.14651 0.63483,-0.14651 0.74878,0 1.51384,0.9604 0.61856,0.76505 1.00922,1.67661 0.39067,0.91155 0.39067,1.57894 0,0.65112 -0.45578,1.09062 -0.45578,0.42322 -1.13944,0.42322 -0.56973,0 -1.0255,-0.27672 -0.43951,-0.27673 -1.43245,-1.22084 -1.04178,-1.00922 -1.72545,-1.00922 -0.45578,0 -0.79761,0.34183 -0.32556,0.32556 -0.32556,0.78134 0,0.79761 1.53012,1.49755 2.75095,1.23712 4.21595,2.70212 1.23711,1.23711 1.23711,3.02767 0,2.26261 -1.98589,3.77645 -1.70917,1.3185 -4.1834,1.3185 -0.63483,0 -2.31144,-0.21161 -1.57895,-0.17906 -1.77428,-0.17906 -0.21161,0 -0.48834,0.0488 -0.47205,0.0651 -0.68366,0.0651 -0.76506,0 -1.20456,-0.39067 -0.66739,-0.60228 -1.23711,-1.88822 -0.56973,-1.30223 -0.56973,-2.23006 0,-1.49756 1.172,-1.49756 0.45578,0 0.83017,0.30928 0.39067,0.293 1.6115,1.59522 0.66739,0.71623 1.10689,0.99295 0.4395,0.26044 0.94412,0.26044 0.53716,0 0.86272,-0.27672 0.32556,-0.293 0.32556,-0.76506 0,-0.7325 -1.25339,-1.33478 -2.62073,-1.28594 -3.79273,-2.65328 -1.15572,-1.36733 -1.15572,-3.15789 0,-1.93706 1.18827,-3.33695 1.6929,-2.00217 4.6229,-2.00217 z"
           inkscape:connector-curvature="0" />
        <path
           id="path4285"
           style="font-style:normal;font-variant:normal;font-weight:normal;font-stretch:normal;font-family:'Cooper Black';-inkscape-font-specification:'Cooper Black, ';letter-spacing:-0.55296487px"
           d="m 401.51097,524.61037 q 2.89745,0 5.11123,1.44873 2.09984,1.38361 2.09984,3.43461 0,1.41617 -0.97667,2.29517 -0.91156,0.83017 -2.1975,0.83017 -1.35106,0 -2.03473,-0.97667 -0.21161,-0.30928 -0.61856,-1.57895 -0.4395,-1.36733 -1.67661,-1.36733 -0.89528,0 -1.51383,0.78133 -0.60228,0.78134 -0.60228,1.92078 0,1.95334 1.39989,3.46718 1.13944,1.22083 2.86489,1.22083 0.81389,0 1.36734,-0.13022 0.55344,-0.1465 1.44872,-0.56973 0.22789,-0.11394 0.50461,-0.11394 0.55345,0 0.97667,0.52089 0.42322,0.52089 0.42322,1.22083 0,0.73251 -0.60228,1.5464 -0.60228,0.79761 -1.57894,1.39989 -2.11612,1.30222 -4.99729,1.30222 -3.35322,0 -5.7135,-1.95334 -3.02767,-2.47422 -3.02767,-6.2995 0,-3.67879 2.81605,-6.0879 2.68584,-2.31145 6.5274,-2.31145 z"
           inkscape:connector-curvature="0" />
        <path
           id="path4287"
           style="font-style:normal;font-variant:normal;font-weight:normal;font-stretch:normal;font-family:'Cooper Black';-inkscape-font-specification:'Cooper Black, ';letter-spacing:-0.55296487px"
           d="m 418.14736,525.53821 0,8.82256 q 0,2.83234 1.87195,2.83234 0.47206,0 0.92783,-0.26044 0.45578,-0.27673 0.63484,-0.66739 0.35811,-0.78134 0.35811,-3.48345 0,-2.66956 -0.17906,-3.64623 -0.0651,-0.40694 -0.22788,-0.586 -0.16278,-0.19533 -0.61856,-0.4395 -0.92784,-0.48833 -0.92784,-1.23711 0,-1.00923 1.59523,-1.39989 3.02767,-0.74878 5.97395,-0.74878 1.64406,0 1.64406,1.74172 0,0.17906 -0.0163,0.7325 -0.0326,0.78134 -0.0488,1.9045 l 0,7.17851 q 0,0.55345 0.94411,1.00923 0.79761,0.39066 0.79761,1.13944 0,1.465 -3.46717,2.26262 -2.03472,0.47205 -3.93923,0.47205 -0.78133,0 -1.07433,-0.17905 -0.27672,-0.17906 -0.32556,-0.69995 -0.0814,-1.00922 -0.61855,-1.00922 -0.19534,0 -0.35812,0.0977 -0.16277,0.0814 -0.99294,0.65111 -1.64406,1.12317 -3.53228,1.12317 -3.12534,0 -4.41129,-1.80684 -1.09061,-1.51384 -1.09061,-5.09495 0,-1.33478 0.0163,-2.27889 0,-0.55345 0,-0.74878 0,-1.39989 -0.26045,-2.051 -0.24416,-0.66739 -0.91155,-1.04178 -0.63484,-0.32556 -0.81389,-0.52089 -0.16278,-0.19534 -0.16278,-0.53717 0,-1.23711 1.87195,-1.64406 3.19044,-0.69994 6.38089,-0.69994 0.96039,0 0.96039,0.81389 z"
           inkscape:connector-curvature="0" />
        <path
           id="path4289"
           style="font-style:normal;font-variant:normal;font-weight:normal;font-stretch:normal;font-family:'Cooper Black';-inkscape-font-specification:'Cooper Black, ';letter-spacing:-0.55296487px"
           d="m 446.30843,533.53061 -7.65057,0 q -0.50461,0 -0.50461,0.4395 0,1.05805 1.13945,2.00217 1.15572,0.92783 2.47422,0.92783 0.78134,0 1.72545,-0.293 0.96039,-0.30928 1.57894,-0.74878 0.55345,-0.39067 0.879,-0.39067 0.42323,0 0.83017,0.52089 0.40695,0.52089 0.40695,1.07434 0,1.172 -1.465,2.26261 -2.58817,1.93706 -5.97396,1.93706 -3.41833,0 -5.72978,-1.98589 -1.12317,-0.97667 -1.85567,-2.36028 -0.96039,-1.83939 -0.96039,-3.87412 0,-2.73467 1.66034,-4.91589 1.43244,-1.88823 3.64622,-2.81606 1.66034,-0.69995 3.5974,-0.69995 3.09278,0 5.25772,1.758 1.09062,0.87901 1.75801,2.08356 0.76505,1.36734 0.76505,2.66956 0,1.05806 -0.4395,1.74173 -0.4395,0.66739 -1.13944,0.66739 z m -7.22735,-3.04395 1.64406,0 q 1.04178,0 1.04178,-0.96039 0,-0.879 -0.50461,-1.43245 -0.50461,-0.55344 -1.3185,-0.55344 -0.91156,0 -1.43245,0.71622 -0.48833,0.66739 -0.48833,1.35106 0,0.48833 0.22789,0.68366 0.24416,0.19534 0.83016,0.19534 z"
           inkscape:connector-curvature="0" />
        <path
           id="path4291"
           style="font-style:normal;font-variant:normal;font-weight:normal;font-stretch:normal;font-family:'Cooper Black';-inkscape-font-specification:'Cooper Black, ';letter-spacing:-0.55296487px"
           d="m 454.90359,524.61037 q 0.81389,0 2.65328,0.35811 0.37439,0.0651 0.61855,0.0651 0.27673,0 1.07434,-0.293 0.37439,-0.14651 0.63483,-0.14651 0.74878,0 1.51384,0.9604 0.61855,0.76505 1.00922,1.67661 0.39067,0.91155 0.39067,1.57894 0,0.65112 -0.45578,1.09062 -0.45578,0.42322 -1.13945,0.42322 -0.56972,0 -1.0255,-0.27672 -0.4395,-0.27673 -1.43244,-1.22084 -1.04178,-1.00922 -1.72545,-1.00922 -0.45578,0 -0.79761,0.34183 -0.32556,0.32556 -0.32556,0.78134 0,0.79761 1.53011,1.49755 2.75095,1.23712 4.21595,2.70212 1.23712,1.23711 1.23712,3.02767 0,2.26261 -1.98589,3.77645 -1.70917,1.3185 -4.1834,1.3185 -0.63483,0 -2.31145,-0.21161 -1.57894,-0.17906 -1.77428,-0.17906 -0.21161,0 -0.48833,0.0488 -0.47206,0.0651 -0.68367,0.0651 -0.76505,0 -1.20455,-0.39067 -0.66739,-0.60228 -1.23712,-1.88822 -0.56972,-1.30223 -0.56972,-2.23006 0,-1.49756 1.172,-1.49756 0.45578,0 0.83017,0.30928 0.39067,0.293 1.6115,1.59522 0.66739,0.71623 1.10689,0.99295 0.4395,0.26044 0.94411,0.26044 0.53717,0 0.86273,-0.27672 0.32555,-0.293 0.32555,-0.76506 0,-0.7325 -1.25339,-1.33478 -2.62072,-1.28594 -3.79272,-2.65328 -1.15573,-1.36733 -1.15573,-3.15789 0,-1.93706 1.18828,-3.33695 1.69289,-2.00217 4.6229,-2.00217 z"
           inkscape:connector-curvature="0" />
        <path
           id="path4293"
           style="font-style:normal;font-variant:normal;font-weight:normal;font-stretch:normal;font-family:'Cooper Black';-inkscape-font-specification:'Cooper Black, ';letter-spacing:-0.55296487px"
           d="m 483.47208,521.95709 q -1.12317,0 -1.38361,0.56972 -0.19534,0.42323 -0.37439,1.66034 -0.16278,1.23711 -0.16278,2.24634 0,0.60227 0.39067,0.83016 0.39066,0.22789 1.465,0.22789 0.71622,0 1.05806,-0.26044 0.34183,-0.26045 0.47205,-0.879 0.37439,-1.77428 1.53012,-1.77428 1.98589,0 1.98589,4.75311 0,3.0114 -0.86273,4.42756 -0.52089,0.86273 -1.43244,0.86273 -0.96039,0 -1.10689,-1.28595 -0.0814,-0.83017 -0.21161,-1.172 -0.11395,-0.34183 -0.45578,-0.65111 -0.53717,-0.50461 -1.56267,-0.50461 -0.7325,0 -0.99295,0.26044 -0.26044,0.26045 -0.22789,0.99295 0,0.13022 -0.0163,1.51383 0,2.81606 0.586,3.43462 0.19533,0.24416 0.39066,0.32555 0.21162,0.0651 1.07434,0.19534 0.42322,0.0651 0.71622,0.4395 0.293,0.37439 0.293,0.86272 0,1.25339 -1.465,1.6115 -2.11611,0.50462 -5.9414,0.50462 -3.35322,0 -4.62289,-0.39067 -0.56972,-0.17906 -0.92783,-0.65111 -0.35812,-0.47206 -0.35812,-1.04178 0,-0.71623 0.52089,-1.15573 0.13023,-0.0977 0.89528,-0.40694 0.91156,-0.35811 1.09061,-1.66034 0.293,-2.00217 0.293,-9.13184 0,-3.07651 -0.21161,-3.98806 -0.21161,-0.91156 -1.0255,-1.26967 -0.81389,-0.35811 -1.07433,-0.61856 -0.24417,-0.27672 -0.24417,-0.78133 0,-0.71622 0.69995,-1.18828 0.69994,-0.48833 1.72544,-0.48833 0.65111,0 1.9045,0.0977 2.65329,0.21161 6.34835,0.21161 5.90884,0 7.95984,-0.32555 0.27672,-0.0326 0.42322,-0.0326 0.56972,0 1.09061,0.65111 1.43245,1.82312 1.43245,4.0369 0,1.00922 -0.47206,1.6115 -0.47205,0.60228 -1.23711,0.60228 -0.56972,0 -0.86272,-0.22789 -0.293,-0.22789 -1.49756,-1.59522 -0.7325,-0.84645 -1.77428,-1.10689 -1.0255,-0.26045 -3.84156,-0.34184 z"
           inkscape:connector-curvature="0" />
        <path
           id="path4295"
           style="font-style:normal;font-variant:normal;font-weight:normal;font-stretch:normal;font-family:'Cooper Black';-inkscape-font-specification:'Cooper Black, ';letter-spacing:-0.55296487px"
           d="m 499.81547,524.70804 q 0.86273,0 1.04178,0.24417 0.19533,0.24416 0.34183,1.56267 0.0814,0.71622 0.50462,0.71622 0.32555,0 0.61855,-0.47206 1.30223,-2.03472 3.40206,-2.03472 1.48128,0 2.42539,0.96039 0.45578,0.47205 0.74878,1.22083 0.293,0.7325 0.293,1.41617 0,0.76506 -0.35811,1.57895 -0.35811,0.79761 -0.92783,1.3185 -1.04178,0.99294 -2.55562,0.99294 -0.83016,0 -1.39989,-0.293 -0.55344,-0.293 -1.465,-1.18828 -0.34183,-0.34183 -0.63483,-0.34183 -0.45578,0 -0.60228,0.52089 -0.13022,0.50461 -0.13022,2.14867 0,2.45795 0.17905,3.35323 0.11395,0.48833 0.30928,0.68366 0.21161,0.17906 0.879,0.37439 1.465,0.4395 1.465,1.53012 0,0.66739 -0.47205,1.172 -0.47206,0.48833 -1.25339,0.65111 -1.56267,0.32556 -4.59034,0.32556 -2.88117,0 -4.37873,-0.50462 -1.33478,-0.45578 -1.33478,-1.57894 0,-0.84645 0.97667,-1.51384 0.47205,-0.30928 0.65111,-0.55344 0.17906,-0.26045 0.24417,-0.69995 0.26044,-1.48128 0.26044,-5.48562 0,-0.7325 -0.16278,-1.04178 -0.16277,-0.32555 -0.65111,-0.52088 -1.15572,-0.45578 -1.15572,-1.31851 0,-0.78133 0.79761,-1.33478 0.79761,-0.56972 2.66956,-1.12316 2.50678,-0.74878 4.26478,-0.76506 z"
           inkscape:connector-curvature="0" />
        <path
           id="path4297"
           style="font-style:normal;font-variant:normal;font-weight:normal;font-stretch:normal;font-family:'Cooper Black';-inkscape-font-specification:'Cooper Black, ';letter-spacing:-0.55296487px"
           d="m 518.79586,525.73354 0,9.4574 q 0,1.12317 0.19533,1.64406 0.21161,0.52089 0.83017,0.96039 0.50461,0.35811 0.66739,0.61856 0.17905,0.24416 0.17905,0.63483 0,2.09984 -5.32284,2.09984 -2.86489,0 -4.5415,-0.45578 -0.56972,-0.16278 -0.92784,-0.56973 -0.34183,-0.40694 -0.34183,-0.92783 0,-0.4395 0.17906,-0.68367 0.17905,-0.24417 0.91155,-0.78133 0.50462,-0.37439 0.71623,-1.22084 0.21161,-0.84644 0.21161,-2.52306 0,-0.53716 -0.0814,-2.00216 -0.0651,-1.48128 -0.0977,-1.72545 -0.0977,-0.66739 -0.91155,-1.0255 -1.00923,-0.4395 -1.00923,-1.30223 0,-1.0255 1.3185,-1.53011 1.82312,-0.69994 3.90668,-1.18828 2.08355,-0.48833 3.223,-0.48833 0.89528,0 0.89528,1.00922 z m -3.22301,-7.12967 q 1.41617,0 2.24634,0.53716 0.83017,0.52089 0.83017,1.41617 0,1.25339 -1.25339,1.98589 -1.98589,1.15573 -4.80195,1.15573 -1.18828,0 -1.88823,-0.45578 -0.94411,-0.586 -0.94411,-1.62778 0,-1.39989 2.00217,-2.1975 2.03472,-0.81389 3.809,-0.81389 z"
           inkscape:connector-curvature="0" />
        <path
           id="path4299"
           style="font-style:normal;font-variant:normal;font-weight:normal;font-stretch:normal;font-family:'Cooper Black';-inkscape-font-specification:'Cooper Black, ';letter-spacing:-0.55296487px"
           d="m 540.10398,519.90609 0,14.86163 q 0,1.26967 0.0977,1.62778 0.11394,0.35811 0.60228,0.69994 0.586,0.40695 0.78133,0.71623 0.21161,0.30927 0.21161,0.74878 0,1.30222 -2.62072,1.98589 -2.36028,0.60228 -4.72056,0.60228 -0.52089,0 -0.68367,-0.16278 -0.1465,-0.1465 -0.19533,-0.7325 -0.0814,-0.83017 -0.58601,-0.83017 -0.27672,0 -0.86272,0.48833 -1.66033,1.35106 -3.69506,1.35106 -2.52306,0 -4.5415,-1.87195 -1.18828,-1.12317 -1.92078,-2.58817 -0.97667,-1.9045 -0.97667,-3.85783 0,-2.29517 1.26967,-4.42757 1.172,-1.96961 3.19044,-3.02767 1.6929,-0.879 3.33695,-0.879 1.88823,0 3.38578,0.84645 0.24417,0.13022 0.39067,0.13022 0.52089,0 0.52089,-1.39989 0,-0.60228 -0.293,-0.91156 -0.27672,-0.32555 -1.00922,-0.55344 -1.0255,-0.32556 -1.0255,-1.13945 0,-1.18828 2.36028,-1.85567 4.16711,-1.15572 5.58328,-1.15572 1.39989,0 1.39989,1.33478 z m -8.83884,8.18773 q -1.05806,0 -1.67662,1.12317 -0.83016,1.49756 -0.83016,3.93923 0,2.21378 0.79761,3.33694 0.56972,0.81389 1.54639,0.81389 1.05806,0 1.53011,-1.22083 0.48834,-1.23711 0.48834,-3.97178 0,-2.50678 -0.56973,-3.33695 -0.4395,-0.65111 -1.28594,-0.68367 z"
           inkscape:connector-curvature="0" />
        <path
           id="path4301"
           style="font-style:normal;font-variant:normal;font-weight:normal;font-stretch:normal;font-family:'Cooper Black';-inkscape-font-specification:'Cooper Black, ';letter-spacing:-0.55296487px"
           d="m 551.49892,524.59409 q 2.83233,0 4.80195,1.43245 1.04178,0.76506 1.44872,1.758 0.42322,0.97667 0.42322,2.70212 l -0.0326,2.42539 q 0,2.52306 0.35811,3.27184 0.17906,0.35811 0.34183,0.45578 0.16278,0.0977 0.68367,0.17905 0.52089,0.0814 0.52089,0.68367 0,0.78133 -0.63483,1.62778 -0.61856,0.84644 -1.6115,1.41617 -1.22084,0.71622 -2.55562,0.71622 -1.70917,0 -2.70211,-1.172 -0.34184,-0.42322 -0.63484,-0.42322 -0.32555,0 -0.86272,0.40694 -1.62778,1.18828 -3.69506,1.18828 -2.13239,0 -3.45089,-0.91156 -0.86273,-0.60228 -1.36734,-1.56267 -0.50461,-0.97666 -0.50461,-2.03472 0,-1.69289 1.36733,-2.99512 2.1324,-2.051 6.3809,-2.06728 0.94411,0 1.18828,-0.17905 0.24417,-0.19533 0.24417,-0.879 0,-1.72545 -0.35811,-2.49051 -0.35812,-0.78133 -1.17201,-0.78133 -0.48833,0 -0.879,0.293 -0.37439,0.293 -0.94411,1.07434 -1.44872,2.06728 -3.02767,2.06728 -0.79761,0 -1.30222,-0.47206 -0.50461,-0.47206 -0.50461,-1.23711 0,-0.78134 0.61855,-1.56267 0.63484,-0.78134 1.70917,-1.36734 2.94628,-1.56267 6.15301,-1.56267 z m -1.09061,9.42485 q -0.71623,0 -1.2534,0.586 -0.52088,0.586 -0.52088,1.39989 0,0.78134 0.37438,1.26967 0.37439,0.47206 0.99295,0.47206 1.30222,0 1.30222,-2.19751 0,-0.89528 -0.19533,-1.20455 -0.17906,-0.30928 -0.69994,-0.32556 z"
           inkscape:connector-curvature="0" />
        <path
           id="path4303"
           style="font-style:normal;font-variant:normal;font-weight:normal;font-stretch:normal;font-family:'Cooper Black';-inkscape-font-specification:'Cooper Black, ';letter-spacing:-0.55296487px"
           d="m 575.15104,532.61905 -2.14867,5.90884 q -0.79761,2.1975 -1.6115,3.58112 -0.79761,1.39989 -1.82311,2.37655 -2.11612,2.01845 -5.09495,2.01845 -2.40912,0 -3.90667,-1.26967 -1.15573,-0.97667 -1.15573,-2.4905 0,-1.25339 0.79761,-2.09984 0.81389,-0.86272 1.9859,-0.86272 1.172,0 1.88822,0.78133 0.34183,0.35812 0.45578,0.63484 0.11394,0.27672 0.34183,1.22083 0.17906,0.71623 0.81389,0.71623 0.50461,0 0.84645,-0.4395 0.34183,-0.4395 0.34183,-1.09062 0,-0.76505 -0.84644,-2.55561 l -3.92295,-8.35051 q -0.61856,-1.30222 -0.92784,-1.62778 -0.30928,-0.32556 -1.36733,-0.79761 -0.32556,-0.13023 -0.56973,-0.50461 -0.22789,-0.39067 -0.22789,-0.74878 0,-1.44873 2.88118,-1.96962 1.92078,-0.34183 4.37872,-0.34183 1.72545,0 2.71839,0.35811 1.33478,0.47206 1.33478,1.6115 0,0.40695 -0.37439,0.96039 -0.35811,0.52089 -0.35811,0.92784 0,0.39066 0.16278,0.81389 0.17906,0.42322 0.7325,1.43244 0.61856,1.13945 1.09061,1.13945 0.50462,0 1.04178,-0.99295 0.53717,-1.00922 0.53717,-1.93705 0,-0.74878 -0.40694,-1.22084 -0.61856,-0.7325 -0.61856,-1.25339 0,-0.83017 1.10689,-1.3185 1.10689,-0.50461 2.96256,-0.50461 3.45089,0 3.45089,1.66033 0,0.60228 -0.35811,0.97667 -0.34183,0.35811 -1.26967,0.68367 -0.78133,0.293 -1.23711,0.97667 -0.71622,1.09061 -1.64406,3.59739 z"
           inkscape:connector-curvature="0" />
      </g>
      <g
         id="text4147-0"
         style="font-style:normal;font-weight:normal;font-size:95.18438721px;line-height:125%;font-family:sans-serif;letter-spacing:0px;word-spacing:0px;fill:#ff0000;fill-opacity:1;stroke:none;stroke-width:1px;stroke-linecap:butt;stroke-linejoin:miter;stroke-opacity:1"
         transform="scale(0.99881748,1.0011839)">
        <path
           id="path4274"
           style="font-style:normal;font-variant:normal;font-weight:normal;font-stretch:normal;font-family:'Cooper Black';-inkscape-font-specification:'Cooper Black, ';letter-spacing:1.49000001px;fill:#ff0000"
           d="m 289.10158,588.33864 q -1.76612,0 -2.27737,1.06897 -0.46476,1.06896 -0.46476,4.97301 0,5.90255 0.74363,9.2024 0.23238,0.92953 0.69715,1.44077 0.46476,0.51125 1.76611,1.25488 2.78861,1.53373 2.78861,4.04347 0,3.06747 -3.90405,4.36882 -3.85757,1.25487 -13.10644,1.25487 -17.1964,0 -17.1964,-6.50674 0,-1.11545 0.51124,-1.76612 0.51125,-0.69715 2.32384,-1.90555 2.04498,-1.34782 2.74213,-3.16042 0.74363,-1.85907 1.02249,-6.36731 0.23238,-3.29985 0.23238,-23.65667 0,-6.46027 -0.65067,-8.7841 -0.65068,-2.32384 -2.78861,-3.39281 -2.04497,-0.97601 -2.74213,-1.76611 -0.69715,-0.83658 -0.69715,-2.13793 0,-1.71964 1.30135,-2.97452 1.34783,-1.30134 3.71814,-1.90554 1.9985,-0.51125 5.48426,-0.51125 1.53373,0 7.66866,0.46477 1.16192,0.093 3.67167,0.093 4.1829,0 11.15442,-0.55772 4.41529,-0.32533 6.1814,-0.32533 9.94603,0 16.45277,4.7871 5.85607,4.32234 5.85607,11.991 0,4.27586 -2.04497,7.8081 -2.04498,3.48575 -5.62369,5.25187 -1.48726,0.74363 -1.48726,1.76612 0,1.34782 2.27737,2.1844 4.88005,1.76612 7.15742,5.34483 2.27736,3.57871 3.25337,10.96851 0.41829,3.06747 1.20839,3.997 0.79011,0.88306 3.67167,1.71964 0.88306,0.27886 1.48725,1.2084 0.6042,0.88306 0.6042,1.9985 0,1.44078 -1.11544,2.92804 -1.11544,1.44077 -2.88156,2.27736 -3.90405,1.81259 -10.68965,1.81259 -9.06297,0 -12.96702,-4.78711 -1.76611,-2.13793 -3.02099,-5.3913 -1.20839,-3.25337 -2.88155,-10.13193 -1.06897,-4.41529 -2.74213,-6.22789 -1.62669,-1.81259 -4.69415,-1.95202 z m -2.69566,-23.70314 -0.51124,10.82908 q 0,0.13943 0,0.41829 0,1.67316 0.46477,2.23089 0.51124,0.55772 1.9985,0.55772 4.08995,0 5.94902,-2.09146 1.85907,-2.13793 1.85907,-6.7856 0,-8.97002 -6.36731,-8.97002 -1.8126,0 -2.55622,0.83659 -0.74363,0.83658 -0.83659,2.97451 z"
           inkscape:connector-curvature="0" />
        <path
           id="path4276"
           style="font-style:normal;font-variant:normal;font-weight:normal;font-stretch:normal;font-family:'Cooper Black';-inkscape-font-specification:'Cooper Black, ';letter-spacing:1.49000001px;fill:#ff0000"
           d="m 380.52409,577.8349 17.75412,22.26236 q 1.5802,1.95202 2.46326,2.64917 0.88306,0.69716 2.50975,1.2084 2.55622,0.83658 3.57871,1.90555 1.06896,1.06896 1.06896,2.83508 0,1.67316 -1.16192,3.16042 -1.16191,1.44078 -2.97451,2.13793 -2.7886,1.06896 -6.97151,1.48725 -4.18291,0.46477 -11.61919,0.46477 -7.94752,0 -11.89805,-0.88306 -2.32383,-0.55772 -3.67166,-1.81259 -1.34783,-1.25487 -1.34783,-2.83508 0,-1.9985 1.85907,-3.25337 1.85907,-1.2084 1.85907,-2.04498 0,-2.32384 -5.3913,-9.43478 -0.69715,-0.88306 -1.20839,-0.88306 -0.46477,0 -1.06897,0.74363 -2.23088,2.69565 -3.95052,5.3913 -1.67317,2.69565 -1.67317,3.48576 0,0.74363 1.90555,2.23088 1.85907,1.3943 1.85907,3.53223 0,3.2069 -3.62519,4.32234 -4.74063,1.48726 -11.29385,1.48726 -7.43628,0 -11.43328,-1.25487 -1.62668,-0.51125 -2.74213,-1.90555 -1.11544,-1.3943 -1.11544,-2.92804 0,-2.04497 1.34783,-3.20689 1.3943,-1.16192 3.95052,-1.25487 3.06747,-0.093 5.2054,-1.8126 2.13793,-1.76611 7.43628,-8.45877 l 7.20389,-9.01649 q 0.6042,-0.74362 0.6042,-1.16192 0,-0.27886 -0.6042,-1.02248 l -11.89804,-15.1979 q -2.78861,-3.62519 -3.67167,-4.41529 -0.88306,-0.79011 -2.83508,-1.39431 -2.7886,-0.88305 -3.62519,-1.62668 -1.58021,-1.44078 -1.58021,-3.43928 0,-4.18291 6.5997,-5.67016 6.97152,-1.58021 15.75562,-1.58021 9.24888,0 12.54872,1.20839 1.44078,0.51125 2.32384,1.76612 0.88306,1.25487 0.88306,2.74213 0,2.32383 -1.71964,3.53223 -1.06896,0.74363 -1.30135,0.97601 -0.18591,0.23238 -0.18591,0.74363 0,1.06896 1.71964,3.29985 1.71964,2.23088 2.55623,2.23088 0.74362,0 2.69565,-2.37031 1.95202,-2.37032 1.95202,-3.29985 0,-0.55772 -0.27886,-0.83658 -0.23238,-0.27886 -1.76612,-1.44078 -1.3943,-1.02249 -1.3943,-3.06747 0,-2.92803 3.62519,-4.22938 3.62518,-1.30135 11.80509,-1.30135 5.9955,0 9.24888,0.97601 4.08995,1.2084 4.08995,4.83358 0,2.41679 -2.09145,3.62519 -0.83659,0.46477 -4.36882,0.69715 -2.32384,0.18591 -4.7871,2.04498 -2.41679,1.85907 -5.67017,5.9955 l -5.48425,6.87856 q -0.6042,0.7901 -0.6042,1.16192 0,0.27886 0.6042,1.02249 z"
           inkscape:connector-curvature="0" />
      </g>
    </g>
  </g>
</svg>
